<?xml version="1.0" encoding="UTF-8"?>
<svg width="1200px" height="628px" viewBox="0 0 1200 628" version="1.1" xmlns="http://www.w3.org/2000/svg" xmlns:xlink="http://www.w3.org/1999/xlink">
    <!-- Generator: Sketch 61.2 (89653) - https://sketch.com -->
    <title>ksqldb</title>
    <desc>Created with Sketch.</desc>
    <defs>
        <rect id="path-1" x="0" y="0" width="242" height="135" rx="4"></rect>
    </defs>
    <g id="ksqldb" stroke="none" stroke-width="1" fill="none" fill-rule="evenodd">
        <g id="db" transform="translate(413.000000, 127.000000)" stroke="#22E6DD" stroke-linecap="round" stroke-linejoin="round" stroke-width="4.91">
            <path d="M354,43.4619863 C354,19.4578767 274.750068,0 177,0 C79.2499315,0 0,19.4578767 0,43.4619863 L0,310.538014 L0,310.538014 C0,334.60274 79.2499315,354 177,354 C274.750068,354 354,334.60274 354,310.538014 L354,310.538014 L354,43.4619863 Z" id="Path"></path>
            <path d="M189.850201,0 C281.610205,1.59748603 354,20.2148045 354,42.9519553 C354,66.7340782 274.761539,86 177.025619,86 C158.916049,86 141.44892,85.3393855 125,84.1142458" id="Path"></path>
            <path d="M109,85 C103.86637,84.1019108 98.8552339,83.089172 94,82" id="Path"></path>
        </g>
        <g id="left-app-2" transform="translate(570.000000, 500.000000)" fill="#D938FD">
            <polygon id="Triangle-Copy-3" points="15 0 30 30 0 30"></polygon>
        </g>
        <g id="right-app" transform="translate(994.000000, 369.000000)">
            <g id="Group" stroke="#D8D8D8" stroke-width="5.985">
                <rect id="Rectangle" x="2.9925" y="2.9925" width="165.015" height="165.015" rx="17.1"></rect>
                <rect id="Rectangle" x="20.0925" y="20.0925" width="130.815" height="130.815" rx="17.1"></rect>
            </g>
            <text id="APP-Copy" font-family="MarkPro-Bold, Mark Pro" font-size="36" font-weight="bold" fill="#FFFFFF">
                <tspan x="48.974" y="100">APP</tspan>
            </text>
        </g>
        <g id="right-app-copy" transform="translate(994.000000, 115.000000)">
            <g id="Group" stroke="#D8D8D8" stroke-width="5.985">
                <rect id="Rectangle" x="2.9925" y="2.9925" width="165.015" height="165.015" rx="17.1"></rect>
                <rect id="Rectangle" x="20.0925" y="20.0925" width="130.815" height="130.815" rx="17.1"></rect>
            </g>
            <text id="APP" font-family="MarkPro-Bold, Mark Pro" font-size="36" font-weight="bold" fill="#FFFFFF">
                <tspan x="48.974" y="100">APP</tspan>
            </text>
        </g>
        <path d="M471.700003,337 L471.700003,321.319997 L475.220003,321.319997 L486.380005,337 L499.220007,337 L483.820005,316.479997 L499.100007,298.239994 L486.300005,298.239994 L475.380003,312.039996 L471.700003,312.039996 L471.700003,279.399991 L461.260001,279.399991 L461.260001,337 L471.700003,337 Z M519.580003,338 C530.820005,338 537.380006,332.839999 537.380006,324.839998 C537.380006,318.279997 532.700005,314.519996 524.300004,313.239993 L520.860003,312.719996 C517.34,312.199996 514.540002,311.639996 514.540002,309.399995 C514.540002,307.279995 516.540003,305.879995 520.500003,305.879995 C524.860004,305.919995 529.780005,307.519995 532.860005,309.039995 L536.380006,300.919994 C531.220005,298.399994 526.380004,297.239993 520.180003,297.239993 C509.980002,297.239993 503.820001,301.959994 503.820001,309.919996 C503.820001,316.519997 508.260001,320.439997 517.220003,321.679997 L520.380003,322.119998 C524.860004,322.759998 526.820004,323.799998 526.820004,325.679998 C526.820004,327.959999 524.500004,329.319999 519.660003,329.319999 C513.820002,329.319999 509.780002,327.719998 506.460001,325.519998 L502.34,333.439999 C507.380001,337 514.300002,338 519.580003,338 Z M583.780007,353.000003 L583.780007,298.239994 L573.580005,298.239994 L573.580005,302.519994 C571.020005,299.359994 567.300004,297.199993 561.980004,297.199993 C551.300002,297.199993 543.220001,305.959995 543.220001,317.599997 C543.220001,329.239999 551.300002,338 561.980004,338 C567.180004,338 570.860005,335.96 573.380005,332.959999 L573.380005,353.000003 L583.780007,353.000003 Z M563.900002,328.279999 C557.780003,328.279999 553.900002,323.519998 553.900002,317.599997 C553.900002,311.679996 557.780003,306.919995 563.900002,306.919995 C569.860005,306.919995 573.900002,311.479996 573.900002,317.599997 C573.900002,323.719998 569.860005,328.279999 563.900002,328.279999 Z M605.180003,337 L605.180003,279.399991 L594.740001,279.399991 L594.740001,337 L605.180003,337 Z M640.100005,336.999991 C657.620008,336.999991 669.18001,325.879998 669.18001,308.999991 C669.18001,292.119993 657.620008,280.999991 640.100005,280.999991 L617.020001,280.999991 L617.020001,336.999991 L640.100005,336.999991 Z M639.980005,326.559998 L628.180003,326.559998 L628.180003,291.439993 L639.980005,291.439993 C651.780007,291.439993 657.500008,298.719994 657.500008,308.999995 C657.500008,319.159997 651.780007,326.559998 639.980005,326.559998 Z M703.460005,336.999991 C716.900007,336.999991 724.540008,331.719999 724.540008,320.959997 C724.540008,314.919996 720.340008,310.119996 715.220001,308.399995 C719.900008,306.679995 723.340008,302.159994 723.340008,296.519993 C723.340008,285.839992 715.140007,280.999991 702.100005,280.999991 L679.220001,280.999991 L679.220001,336.999991 L703.460005,336.999991 Z M701.820005,303.919995 L690.380003,303.919995 L690.380003,290.839992 L701.780005,290.839992 C707.300006,290.839992 711.700006,292.039993 711.700006,297.319993 C711.700006,302.759994 707.380003,303.919995 701.820005,303.919995 Z M702.900005,327.199998 L690.380003,327.159998 L690.380003,313.719996 L702.900005,313.719996 C709.060006,313.719996 712.940007,315.159996 712.940007,320.399997 C712.940007,325.759998 709.060006,327.199998 702.900005,327.199998 Z" id="ksqlDB" fill="#22E6DD" fill-rule="nonzero"></path>
        <g id="Push" transform="translate(825.000000, 497.000000)">
            <text id="PUSH" font-family="MarkPro-Bold, Mark Pro" font-size="21" font-weight="bold" fill="#FFFFFF">
                <tspan x="29.991" y="57">PUSH</tspan>
            </text>
            <rect id="Rectangle-Copy-4" fill="#D8D8D8" x="0" y="8.5" width="87" height="13"></rect>
            <polygon id="Triangle-Copy-4" fill="#D8D8D8" transform="translate(102.000000, 15.000000) rotate(90.000000) translate(-102.000000, -15.000000) " points="102 0 117 30 87 30"></polygon>
        </g>
        <g id="Push-Copy" transform="translate(825.000000, 243.000000)">
            <text id="PUSH" font-family="MarkPro-Bold, Mark Pro" font-size="21" font-weight="bold" fill="#FFFFFF">
                <tspan x="29.991" y="57">PUSH</tspan>
            </text>
            <rect id="Rectangle-Copy-4" fill="#D8D8D8" x="0" y="8.5" width="87" height="13"></rect>
            <polygon id="Triangle-Copy-4" fill="#D8D8D8" transform="translate(102.000000, 15.000000) rotate(90.000000) translate(-102.000000, -15.000000) " points="102 0 117 30 87 30"></polygon>
        </g>
        <g id="Pull" transform="translate(832.000000, 356.000000)">
            <text id="PULL" font-family="MarkPro-Bold, Mark Pro" font-size="21" font-weight="bold" fill="#FFFFFF">
                <tspan x="25.52675" y="62">PULL</tspan>
            </text>
            <g id="Group-2">
                <polygon id="Triangle" fill="#D8D8D8" transform="translate(95.000000, 15.000000) rotate(90.000000) translate(-95.000000, -15.000000) " points="95 0 110 30 80 30"></polygon>
                <path d="M0,60 C0,43 12.6732673,15 39.6039604,15 C57.5577558,15 71.0231023,15 80,15" id="Path-2" stroke="#D8D8D8" stroke-width="13"></path>
            </g>
            <g id="Group-2" transform="translate(55.000000, 76.000000) scale(-1, -1) translate(-55.000000, -76.000000) translate(0.000000, 46.000000)">
                <polygon id="Triangle" fill="#D8D8D8" transform="translate(95.000000, 15.000000) rotate(90.000000) translate(-95.000000, -15.000000) " points="95 0 110 30 80 30"></polygon>
                <path d="M0,60 C0,43 12.6732673,15 39.6039604,15 C57.5577558,15 71.0231023,15 80,15" id="Path-2" stroke="#D8D8D8" stroke-width="13"></path>
            </g>
        </g>
        <g id="Pull-Copy" transform="translate(832.000000, 102.000000)">
            <text id="PULL" font-family="MarkPro-Bold, Mark Pro" font-size="21" font-weight="bold" fill="#FFFFFF">
                <tspan x="25.52675" y="62">PULL</tspan>
            </text>
            <g id="Group-2">
                <polygon id="Triangle" fill="#D8D8D8" transform="translate(95.000000, 15.000000) rotate(90.000000) translate(-95.000000, -15.000000) " points="95 0 110 30 80 30"></polygon>
                <path d="M0,60 C0,43 12.6732673,15 39.6039604,15 C57.5577558,15 71.0231023,15 80,15" id="Path-2" stroke="#D8D8D8" stroke-width="13"></path>
            </g>
            <g id="Group-2" transform="translate(55.000000, 76.000000) scale(-1, -1) translate(-55.000000, -76.000000) translate(0.000000, 46.000000)">
                <polygon id="Triangle" fill="#D8D8D8" transform="translate(95.000000, 15.000000) rotate(90.000000) translate(-95.000000, -15.000000) " points="95 0 110 30 80 30"></polygon>
                <path d="M0,60 C0,43 12.6732673,15 39.6039604,15 C57.5577558,15 71.0231023,15 80,15" id="Path-2" stroke="#D8D8D8" stroke-width="13"></path>
            </g>
        </g>
        <rect id="Rectangle" stroke="#D938FD" stroke-width="5" x="61.5" y="50.5" width="273" height="241" rx="9"></rect>
        <path d="M132.886002,94.4680001 C137.494003,94.4680001 141.292004,92.4159997 143.524004,89.1399992 L139.420004,86.1879987 C137.908003,88.3839991 135.640003,89.6439993 132.850002,89.6439993 C128.404002,89.6439993 124.912001,86.4579988 124.894001,81.3999979 C124.894001,76.5039971 128.278002,73.1559966 132.850002,73.1559966 C135.658003,73.1559966 137.944003,74.4519968 139.366004,76.6299972 L143.686004,73.9839967 C141.634004,70.4559961 137.530003,68.3319958 132.886002,68.3319958 C125.128001,68.3319958 119.656,73.8219967 119.656,81.3999979 C119.656,88.9779992 125.128001,94.4680001 132.886002,94.4680001 Z M166.384003,94 L166.384003,89.3019992 L153.064001,89.3019992 L153.064001,68.7999959 L148.042,68.7999959 L148.042,94 L166.384003,94 Z M174.844001,94 L174.844001,68.7999959 L169.822,68.7999959 L169.822,94 L174.844001,94 Z M199.396004,94 L199.396004,89.3919992 L185.590001,89.3919992 L185.590001,83.5959983 L198.622003,83.5959983 L198.622003,78.9879975 L185.590001,78.9879975 L185.590001,73.4079966 L199.252004,73.4079966 L199.252004,68.7999959 L180.568,68.7999959 L180.568,94 L199.396004,94 Z M209.566001,94 L209.584001,77.1699972 L222.364003,94 L227.080004,94 L227.080004,68.7999959 L222.040003,68.7999959 L222.040003,85.6299986 L209.242001,68.7999959 L204.544,68.7999959 L204.544,94 L209.566001,94 Z M243.352002,94 L243.352002,73.4979966 L251.164003,73.4979966 L251.164003,68.7999959 L230.518,68.7999959 L230.518,73.4979966 L238.330001,73.4979966 L238.330001,94 L243.352002,94 Z M264.070002,94.4500001 C269.488003,94.4500001 274.384004,91.8039996 274.384004,86.2419987 C274.384004,81.849998 270.856003,79.9239977 266.356002,79.1859976 L264.934002,78.9519975 C261.910002,78.4479975 259.732001,77.8899974 259.732001,76.0359971 C259.732001,74.1279967 261.730002,73.0119966 264.556002,73.0119966 C267.310003,73.0119966 269.722003,73.9299967 271.702003,75.1539969 L274.078004,71.0499962 C270.910003,69.1599959 267.976003,68.3679958 264.448002,68.3679958 C259.084001,68.3679958 254.404,71.1039962 254.404,76.3599971 C254.404,80.9139979 257.644001,82.8759982 262.090002,83.5779983 L263.692002,83.8299983 C267.202003,84.3879984 269.038003,85.0359985 269.038003,86.7819988 C269.038003,88.7259991 266.878002,89.8239993 264.088002,89.8239993 C260.848001,89.8239993 257.878001,88.5639991 256.060001,87.1059989 L253.45,91.1559995 C256.150001,93.3339999 260.254001,94.4500001 264.070002,94.4500001 Z" id="CLIENTS" fill="#D839FD" fill-rule="nonzero"></path>
        <path d="M272.768751,550.189 C274.186251,550.189 275.540751,549.643 276.506752,548.6245 L275.519751,547.4905 C274.795251,548.215 273.850251,548.5825 272.842251,548.5825 C271.130751,548.5825 269.81825,547.2595 269.81825,545.390499 C269.81825,543.237999 271.466751,541.442499 273.587751,541.442499 C274.396251,541.442499 275.435751,541.641999 276.296751,542.712999 L277.640752,541.746999 C276.800752,540.497498 275.456751,539.825498 273.671751,539.825498 C270.437751,539.825498 268.05425,542.408499 268.05425,545.516499 C268.05425,548.1625 269.92325,550.189 272.768751,550.189 Z M280.15025,550 L281.336751,544.487499 C281.777751,542.450499 283.121751,541.452999 284.644251,541.452999 C285.190251,541.452999 285.767751,541.589499 286.145751,541.841499 L286.807251,540.213998 C286.313751,539.961998 285.641751,539.814998 285.032751,539.814998 C284.035251,539.814998 282.932751,540.140498 282.029751,541.095999 L282.260751,540.024998 L280.54925,540.024998 L278.42825,550 L280.15025,550 Z M291.689751,550.2205 C293.317251,550.2205 294.524751,549.8005 295.700752,548.845 L294.839751,547.6585 C293.989251,548.341 293.086251,548.719 291.878751,548.719 C289.967751,548.719 288.86525,547.5745 288.86525,545.810499 L288.86525,545.621499 L296.572252,545.621499 C296.761252,545.148999 296.897752,544.413999 296.897752,543.783999 C296.897752,541.347999 295.238751,539.814998 292.771251,539.814998 C289.01225,539.814998 287.12225,543.164499 287.12225,545.883999 C287.12225,548.3515 288.77075,550.2205 291.689751,550.2205 Z M295.175751,544.235499 L289.10675,544.235499 C289.547751,542.765499 290.660751,541.337499 292.687251,541.337499 C294.178251,541.337499 295.196751,542.261499 295.196751,543.836499 C295.196751,543.962499 295.186251,544.098999 295.175751,544.235499 Z M302.788251,550.2205 C304.216251,550.2205 305.308251,549.685 306.106251,548.887 L305.875251,550 L307.576252,550 L309.697252,540.024998 L307.985752,540.024998 L307.628752,541.662999 C307.061752,540.560498 305.885751,539.814998 304.184751,539.814998 C300.940251,539.814998 298.48325,542.597499 298.48325,545.747499 C298.48325,548.32 300.32075,550.21 302.788251,550.2205 Z M303.187251,548.593 C301.339251,548.593 300.25775,547.2805 300.25775,545.568999 C300.25775,543.311499 301.958751,541.431999 304.132251,541.431999 C306.127251,541.431999 307.303252,543.006999 307.019752,545.054499 C306.746751,547.081 305.150751,548.593 303.187251,548.593 Z M315.703251,550.21 C316.910751,550.21 317.855751,549.8215 318.653751,549.244 L317.939751,547.921 C317.278251,548.3725 316.616751,548.6035 315.902751,548.6035 C314.810751,548.6035 314.075751,547.8895 314.411751,546.282999 L315.409251,541.589499 L319.441251,541.589499 L319.777252,540.024998 L315.734751,540.024998 L316.406751,536.895998 L314.674251,536.895998 L314.002251,540.024998 L311.92325,540.024998 L311.58725,541.589499 L313.666251,541.589499 L312.67925,546.240999 C312.13325,548.8135 313.403751,550.21 315.703251,550.21 Z M325.090251,550.2205 C326.717751,550.2205 327.925251,549.8005 329.101252,548.845 L328.240251,547.6585 C327.389751,548.341 326.486751,548.719 325.279251,548.719 C323.368251,548.719 322.26575,547.5745 322.26575,545.810499 L322.26575,545.621499 L329.972752,545.621499 C330.161752,545.148999 330.298252,544.413999 330.298252,543.783999 C330.298252,541.347999 328.639251,539.814998 326.171751,539.814998 C322.41275,539.814998 320.52275,543.164499 320.52275,545.883999 C320.52275,548.3515 322.17125,550.2205 325.090251,550.2205 Z M328.576251,544.235499 L322.50725,544.235499 C322.948251,542.765499 324.061251,541.337499 326.087751,541.337499 C327.578751,541.337499 328.597251,542.261499 328.597251,543.836499 C328.597251,543.962499 328.586751,544.098999 328.576251,544.235499 Z M338.14175,554.200001 L339.38075,548.3725 C339.947751,549.475 341.113251,550.21 342.824751,550.21 C346.069252,550.21 348.526252,547.4275 348.526252,544.277499 C348.526252,541.704999 346.688752,539.814998 344.221251,539.804498 C342.772251,539.804498 341.690751,540.360998 340.882251,541.158999 L341.134251,540.024998 L339.42275,540.024998 L336.40925,554.200001 L338.14175,554.200001 Z M342.866751,548.593 C340.882251,548.593 339.706251,547.018 339.989751,544.970499 C340.262751,542.943999 341.848251,541.431999 343.822251,541.431999 C345.670251,541.431999 346.751752,542.754999 346.751752,544.455999 C346.751752,546.713499 345.050751,548.593 342.866751,548.593 Z M354.763251,550.2205 C356.390751,550.2205 357.598251,549.8005 358.774252,548.845 L357.913251,547.6585 C357.062751,548.341 356.159751,548.719 354.952251,548.719 C353.041251,548.719 351.93875,547.5745 351.93875,545.810499 L351.93875,545.621499 L359.645752,545.621499 C359.834752,545.148999 359.971252,544.413999 359.971252,543.783999 C359.971252,541.347999 358.312251,539.814998 355.844751,539.814998 C352.08575,539.814998 350.19575,543.164499 350.19575,545.883999 C350.19575,548.3515 351.84425,550.2205 354.763251,550.2205 Z M358.249251,544.235499 L352.18025,544.235499 C352.621251,542.765499 353.734251,541.337499 355.760751,541.337499 C357.251751,541.337499 358.270251,542.261499 358.270251,543.836499 C358.270251,543.962499 358.259751,544.098999 358.249251,544.235499 Z M363.07925,550 L364.265751,544.487499 C364.706751,542.450499 366.050751,541.452999 367.573251,541.452999 C368.119251,541.452999 368.696751,541.589499 369.074751,541.841499 L369.736251,540.213998 C369.242751,539.961998 368.570751,539.814998 367.961751,539.814998 C366.964251,539.814998 365.861751,540.140498 364.958751,541.095999 L365.189751,540.024998 L363.47825,540.024998 L361.35725,550 L363.07925,550 Z M373.705251,550.21 C376.172751,550.21 377.821251,548.992 378.031251,547.207 C378.199251,545.705499 377.243751,544.613499 375.007251,544.277499 L374.167251,544.151499 C373.033251,543.983499 372.382251,543.594999 372.487251,542.670999 C372.581751,541.820499 373.495251,541.316499 374.818251,541.316499 C375.962751,541.316499 377.327751,541.725999 378.073251,542.240499 L378.976252,540.927999 C378.010251,540.266498 376.540251,539.825498 374.839251,539.825498 C372.539751,539.825498 370.92275,540.875499 370.70225,542.754999 C370.52375,544.245999 371.43725,545.358999 373.663251,545.684499 L374.545251,545.820999 C375.784251,546.009999 376.340751,546.482499 376.256751,547.2385 C376.151751,548.1835 375.164751,548.7085 373.684251,548.7085 C372.319251,548.7085 371.12225,548.215 370.27175,547.564 L369.31625,548.8345 C370.47125,549.7165 372.20375,550.21 373.705251,550.21 Z M383.638251,537.714998 C384.331251,537.714998 384.866751,537.200498 384.866751,536.517998 C384.866751,535.824998 384.331251,535.289498 383.638251,535.289498 C382.955751,535.289498 382.430751,535.824998 382.430751,536.517998 C382.430751,537.200498 382.955751,537.714998 383.638251,537.714998 Z M381.64325,550 L383.764251,540.024998 L382.03175,540.024998 L379.91075,550 L381.64325,550 Z M388.888251,550.21 C391.355751,550.21 393.004251,548.992 393.214251,547.207 C393.382251,545.705499 392.426751,544.613499 390.190251,544.277499 L389.350251,544.151499 C388.216251,543.983499 387.565251,543.594999 387.670251,542.670999 C387.764751,541.820499 388.678251,541.316499 390.001251,541.316499 C391.145751,541.316499 392.510751,541.725999 393.256251,542.240499 L394.159252,540.927999 C393.193251,540.266498 391.723251,539.825498 390.022251,539.825498 C387.722751,539.825498 386.10575,540.875499 385.88525,542.754999 C385.70675,544.245999 386.62025,545.358999 388.846251,545.684499 L389.728251,545.820999 C390.967251,546.009999 391.523751,546.482499 391.439751,547.2385 C391.334751,548.1835 390.347751,548.7085 388.867251,548.7085 C387.502251,548.7085 386.30525,548.215 385.45475,547.564 L384.49925,548.8345 C385.65425,549.7165 387.38675,550.21 388.888251,550.21 Z M399.797751,550.21 C401.005251,550.21 401.950251,549.8215 402.748251,549.244 L402.034251,547.921 C401.372751,548.3725 400.711251,548.6035 399.997251,548.6035 C398.905251,548.6035 398.170251,547.8895 398.506251,546.282999 L399.503751,541.589499 L403.535751,541.589499 L403.871752,540.024998 L399.829251,540.024998 L400.501251,536.895998 L398.768751,536.895998 L398.096751,540.024998 L396.01775,540.024998 L395.68175,541.589499 L397.760751,541.589499 L396.77375,546.240999 C396.22775,548.8135 397.498251,550.21 399.797751,550.21 Z M409.184751,550.2205 C410.812251,550.2205 412.019751,549.8005 413.195752,548.845 L412.334751,547.6585 C411.484251,548.341 410.581251,548.719 409.373751,548.719 C407.462751,548.719 406.36025,547.5745 406.36025,545.810499 L406.36025,545.621499 L414.067252,545.621499 C414.256252,545.148999 414.392752,544.413999 414.392752,543.783999 C414.392752,541.347999 412.733751,539.814998 410.266251,539.814998 C406.50725,539.814998 404.61725,543.164499 404.61725,545.883999 C404.61725,548.3515 406.26575,550.2205 409.184751,550.2205 Z M412.670751,544.235499 L406.60175,544.235499 C407.042751,542.765499 408.155751,541.337499 410.182251,541.337499 C411.673251,541.337499 412.691751,542.261499 412.691751,543.836499 C412.691751,543.962499 412.681251,544.098999 412.670751,544.235499 Z M417.50075,550 L418.666251,544.476999 C419.075751,542.544999 420.472251,541.442499 422.152251,541.442499 C423.727251,541.442499 424.409752,542.324499 424.409752,543.521499 C424.409752,543.794499 424.378252,544.077999 424.304752,544.371999 L423.107751,550 L424.829752,550 L426.047752,544.350999 C426.131752,543.962499 426.173752,543.594999 426.173752,543.248499 C426.173752,541.232499 424.808752,539.814998 422.561751,539.814998 C421.501251,539.814998 420.325251,540.150998 419.369751,541.158999 L419.611251,540.024998 L417.89975,540.024998 L415.77875,550 L417.50075,550 Z M432.872751,550.21 C434.080251,550.21 435.025251,549.8215 435.823251,549.244 L435.109251,547.921 C434.447751,548.3725 433.786251,548.6035 433.072251,548.6035 C431.980251,548.6035 431.245251,547.8895 431.581251,546.282999 L432.578751,541.589499 L436.610751,541.589499 L436.946752,540.024998 L432.904251,540.024998 L433.576251,536.895998 L431.843751,536.895998 L431.171751,540.024998 L429.09275,540.024998 L428.75675,541.589499 L430.835751,541.589499 L429.84875,546.240999 C429.30275,548.8135 430.573251,550.21 432.872751,550.21 Z M451.541751,554.200001 L454.555252,540.024998 L452.843752,540.024998 L452.486752,541.662999 C451.919752,540.560498 450.743751,539.814998 449.042751,539.814998 C445.798251,539.814998 443.34125,542.597499 443.34125,545.747499 C443.34125,548.32 445.24175,550.21 447.803751,550.2205 C449.105751,550.2205 450.124251,549.7795 450.901251,549.097 L449.809251,554.200001 L451.541751,554.200001 Z M448.045251,548.593 C446.197251,548.593 445.11575,547.2805 445.11575,545.568999 C445.11575,543.311499 446.816751,541.431999 448.990251,541.431999 C450.985251,541.431999 452.161252,543.006999 451.877752,545.054499 C451.604751,547.081 450.008751,548.593 448.045251,548.593 Z M460.445751,550.21 C462.902751,550.21 465.034252,548.929 465.674752,545.894499 L466.913752,540.024998 L465.181252,540.024998 L464.005251,545.589999 C463.574751,547.648 462.209751,548.6035 460.645251,548.6035 C459.301251,548.6035 458.324751,547.963 458.324751,546.524499 C458.324751,546.261999 458.356251,545.967999 458.419251,545.652999 L459.616251,540.024998 L457.88375,540.024998 L456.69725,545.579499 C456.61325,545.978499 456.57125,546.366999 456.57125,546.713499 C456.57125,548.9815 458.24075,550.21 460.445751,550.21 Z M472.856751,550.2205 C474.484251,550.2205 475.691751,549.8005 476.867752,548.845 L476.006751,547.6585 C475.156251,548.341 474.253251,548.719 473.045751,548.719 C471.134751,548.719 470.03225,547.5745 470.03225,545.810499 L470.03225,545.621499 L477.739252,545.621499 C477.928252,545.148999 478.064752,544.413999 478.064752,543.783999 C478.064752,541.347999 476.405751,539.814998 473.938251,539.814998 C470.17925,539.814998 468.28925,543.164499 468.28925,545.883999 C468.28925,548.3515 469.93775,550.2205 472.856751,550.2205 Z M476.342751,544.235499 L470.27375,544.235499 C470.714751,542.765499 471.827751,541.337499 473.854251,541.337499 C475.345251,541.337499 476.363751,542.261499 476.363751,543.836499 C476.363751,543.962499 476.353251,544.098999 476.342751,544.235499 Z M481.17275,550 L482.359251,544.487499 C482.800251,542.450499 484.144251,541.452999 485.666751,541.452999 C486.212751,541.452999 486.790251,541.589499 487.168251,541.841499 L487.829751,540.213998 C487.336251,539.961998 486.664251,539.814998 486.055251,539.814998 C485.057751,539.814998 483.955251,540.140498 483.052251,541.095999 L483.283251,540.024998 L481.57175,540.024998 L479.45075,550 L481.17275,550 Z M491.704251,537.714998 C492.397251,537.714998 492.932751,537.200498 492.932751,536.517998 C492.932751,535.824998 492.397251,535.289498 491.704251,535.289498 C491.021751,535.289498 490.496751,535.824998 490.496751,536.517998 C490.496751,537.200498 491.021751,537.714998 491.704251,537.714998 Z M489.70925,550 L491.830251,540.024998 L490.09775,540.024998 L487.97675,550 L489.70925,550 Z M497.867751,550.2205 C499.495251,550.2205 500.702751,549.8005 501.878752,548.845 L501.017751,547.6585 C500.167251,548.341 499.264251,548.719 498.056751,548.719 C496.145751,548.719 495.04325,547.5745 495.04325,545.810499 L495.04325,545.621499 L502.750252,545.621499 C502.939252,545.148999 503.075752,544.413999 503.075752,543.783999 C503.075752,541.347999 501.416751,539.814998 498.949251,539.814998 C495.19025,539.814998 493.30025,543.164499 493.30025,545.883999 C493.30025,548.3515 494.94875,550.2205 497.867751,550.2205 Z M501.353751,544.235499 L495.28475,544.235499 C495.725751,542.765499 496.838751,541.337499 498.865251,541.337499 C500.356251,541.337499 501.374751,542.261499 501.374751,543.836499 C501.374751,543.962499 501.364251,544.098999 501.353751,544.235499 Z M508.283751,550.21 C510.751251,550.21 512.399751,548.992 512.609751,547.207 C512.777751,545.705499 511.822251,544.613499 509.585751,544.277499 L508.745751,544.151499 C507.611751,543.983499 506.960751,543.594999 507.065751,542.670999 C507.160251,541.820499 508.073751,541.316499 509.396751,541.316499 C510.541251,541.316499 511.906251,541.725999 512.651751,542.240499 L513.554752,540.927999 C512.588751,540.266498 511.118751,539.825498 509.417751,539.825498 C507.118251,539.825498 505.50125,540.875499 505.28075,542.754999 C505.10225,544.245999 506.01575,545.358999 508.241751,545.684499 L509.123751,545.820999 C510.362751,546.009999 510.919251,546.482499 510.835251,547.2385 C510.730251,548.1835 509.743251,548.7085 508.262751,548.7085 C506.897751,548.7085 505.70075,548.215 504.85025,547.564 L503.89475,548.8345 C505.04975,549.7165 506.78225,550.21 508.283751,550.21 Z M294.32,586 L295.485501,580.476999 C295.895001,578.544999 297.291501,577.442499 298.971501,577.442499 C300.956001,577.442499 301.460002,578.828499 301.124002,580.371999 L299.927001,586 L301.649002,586 L302.846002,580.476999 C303.266002,578.544999 304.620502,577.442499 306.300502,577.442499 C307.886003,577.442499 308.568503,578.324499 308.568503,579.521499 C308.568503,579.794499 308.526503,580.077999 308.463503,580.371999 L307.266503,586 L308.988503,586 L310.206503,580.350999 C310.290503,579.962499 310.332503,579.594999 310.332503,579.248499 C310.332503,577.232499 308.978003,575.814998 306.731002,575.814998 C305.334502,575.814998 303.791002,576.308498 302.709502,577.767999 C302.205502,576.591998 301.050501,575.814998 299.381001,575.814998 C298.320501,575.814998 297.144501,576.150998 296.189001,577.158999 L296.430501,576.024998 L294.719,576.024998 L292.598,586 L294.32,586 Z M316.832001,586.2205 C318.260001,586.2205 319.352001,585.685 320.150001,584.887 L319.919001,586 L321.620002,586 L323.741002,576.024998 L322.029502,576.024998 L321.672502,577.662999 C321.105502,576.560498 319.929501,575.814998 318.228501,575.814998 C314.984001,575.814998 312.527,578.597499 312.527,581.747499 C312.527,584.32 314.3645,586.21 316.832001,586.2205 Z M317.231001,584.593 C315.383001,584.593 314.3015,583.2805 314.3015,581.568999 C314.3015,579.311499 316.002501,577.431999 318.176001,577.431999 C320.171001,577.431999 321.347002,579.006999 321.063502,581.054499 C320.790501,583.081 319.194501,584.593 317.231001,584.593 Z M326.765,586 L327.930501,580.476999 C328.340001,578.544999 329.736501,577.442499 331.416501,577.442499 C332.991501,577.442499 333.674002,578.324499 333.674002,579.521499 C333.674002,579.794499 333.642502,580.077999 333.569002,580.371999 L332.372001,586 L334.094002,586 L335.312002,580.350999 C335.396002,579.962499 335.438002,579.594999 335.438002,579.248499 C335.438002,577.232499 334.073002,575.814998 331.826001,575.814998 C330.765501,575.814998 329.589501,576.150998 328.634001,577.158999 L328.875501,576.024998 L327.164,576.024998 L325.043,586 L326.765,586 Z M341.937501,586.2205 C343.365501,586.2205 344.457501,585.685 345.255501,584.887 L345.024501,586 L346.725502,586 L348.846502,576.024998 L347.135002,576.024998 L346.778002,577.662999 C346.211002,576.560498 345.035001,575.814998 343.334001,575.814998 C340.089501,575.814998 337.6325,578.597499 337.6325,581.747499 C337.6325,584.32 339.47,586.21 341.937501,586.2205 Z M342.336501,584.593 C340.488501,584.593 339.407,583.2805 339.407,581.568999 C339.407,579.311499 341.108001,577.431999 343.281501,577.431999 C345.276501,577.431999 346.452502,579.006999 346.169002,581.054499 C345.896001,583.081 344.300001,584.593 342.336501,584.593 Z M354.138501,590.294501 C356.847501,590.294501 358.884502,588.562 359.567002,585.3385 L361.551502,576.024998 L359.840002,576.024998 L359.472502,577.673499 C358.905502,576.560498 357.740001,575.814998 355.997001,575.814998 C352.826001,575.814998 350.369,578.429499 350.369,581.652999 C350.369,584.131 352.196,586.0105 354.926001,586.021 C356.154501,586.021 357.173001,585.58 357.950001,584.8765 L357.855501,585.37 C357.446001,587.407 356.028501,588.7405 354.170001,588.7405 C352.773501,588.7405 351.5555,588.2785 350.642,587.4805 L349.6655,588.793 C350.8415,589.769501 352.3325,590.294501 354.138501,590.294501 Z M355.031001,584.4145 C353.330001,584.4145 352.154,583.186 352.154,581.484999 C352.154,579.132999 353.792001,577.431999 355.986501,577.431999 C357.771501,577.431999 358.979002,578.796999 358.874002,580.623999 C358.748002,582.849999 357.162501,584.4145 355.031001,584.4145 Z M367.589001,586.2205 C369.216501,586.2205 370.424001,585.8005 371.600002,584.845 L370.739001,583.6585 C369.888501,584.341 368.985501,584.719 367.778001,584.719 C365.867001,584.719 364.7645,583.5745 364.7645,581.810499 L364.7645,581.621499 L372.471502,581.621499 C372.660502,581.148999 372.797002,580.413999 372.797002,579.783999 C372.797002,577.347999 371.138001,575.814998 368.670501,575.814998 C364.9115,575.814998 363.0215,579.164499 363.0215,581.883999 C363.0215,584.3515 364.67,586.2205 367.589001,586.2205 Z M371.075001,580.235499 L365.006,580.235499 C365.447001,578.765499 366.560001,577.337499 368.586501,577.337499 C370.077501,577.337499 371.096001,578.261499 371.096001,579.836499 C371.096001,579.962499 371.085501,580.098999 371.075001,580.235499 Z M384.756501,586.189 C386.174001,586.189 387.528501,585.643 388.494502,584.6245 L387.507501,583.4905 C386.783001,584.215 385.838001,584.5825 384.830001,584.5825 C383.118501,584.5825 381.806,583.2595 381.806,581.390499 C381.806,579.237999 383.454501,577.442499 385.575501,577.442499 C386.384001,577.442499 387.423501,577.641999 388.284501,578.712999 L389.628502,577.746999 C388.788502,576.497498 387.444501,575.825498 385.659501,575.825498 C382.425501,575.825498 380.042,578.408499 380.042,581.516499 C380.042,584.1625 381.911,586.189 384.756501,586.189 Z M395.487501,586.2205 C398.742501,586.2205 401.189002,583.627 401.189002,580.518999 C401.189002,577.809999 399.225502,575.814998 396.359001,575.814998 C393.104001,575.814998 390.6575,578.408499 390.6575,581.505999 C390.6575,584.236 392.642,586.2205 395.487501,586.2205 Z M395.603001,584.6035 C393.734001,584.6035 392.4215,583.2805 392.4215,581.411499 C392.4215,579.248499 394.049001,577.431999 396.222501,577.431999 C398.112501,577.431999 399.435502,578.754999 399.435502,580.623999 C399.435502,582.786999 397.787001,584.6035 395.603001,584.6035 Z M404.465,586 L405.630501,580.476999 C406.040001,578.544999 407.436501,577.442499 409.116501,577.442499 C410.691501,577.442499 411.374002,578.324499 411.374002,579.521499 C411.374002,579.794499 411.342502,580.077999 411.269002,580.371999 L410.072001,586 L411.794002,586 L413.012002,580.350999 C413.096002,579.962499 413.138002,579.594999 413.138002,579.248499 C413.138002,577.232499 411.773002,575.814998 409.526001,575.814998 C408.465501,575.814998 407.289501,576.150998 406.334001,577.158999 L406.575501,576.024998 L404.864,576.024998 L402.743,586 L404.465,586 Z M416.855,586 L418.020501,580.476999 C418.430001,578.544999 419.826501,577.442499 421.506501,577.442499 C423.081501,577.442499 423.764002,578.324499 423.764002,579.521499 C423.764002,579.794499 423.732502,580.077999 423.659002,580.371999 L422.462001,586 L424.184002,586 L425.402002,580.350999 C425.486002,579.962499 425.528002,579.594999 425.528002,579.248499 C425.528002,577.232499 424.163002,575.814998 421.916001,575.814998 C420.855501,575.814998 419.679501,576.150998 418.724001,577.158999 L418.965501,576.024998 L417.254,576.024998 L415.133,586 L416.855,586 Z M432.258501,586.2205 C433.886001,586.2205 435.093501,585.8005 436.269502,584.845 L435.408501,583.6585 C434.558001,584.341 433.655001,584.719 432.447501,584.719 C430.536501,584.719 429.434,583.5745 429.434,581.810499 L429.434,581.621499 L437.141002,581.621499 C437.330002,581.148999 437.466502,580.413999 437.466502,579.783999 C437.466502,577.347999 435.807501,575.814998 433.340001,575.814998 C429.581,575.814998 427.691,579.164499 427.691,581.883999 C427.691,584.3515 429.3395,586.2205 432.258501,586.2205 Z M435.744501,580.235499 L429.6755,580.235499 C430.116501,578.765499 431.229501,577.337499 433.256001,577.337499 C434.747001,577.337499 435.765501,578.261499 435.765501,579.836499 C435.765501,579.962499 435.755001,580.098999 435.744501,580.235499 Z M443.808501,586.189 C445.226001,586.189 446.580501,585.643 447.546502,584.6245 L446.559501,583.4905 C445.835001,584.215 444.890001,584.5825 443.882001,584.5825 C442.170501,584.5825 440.858,583.2595 440.858,581.390499 C440.858,579.237999 442.506501,577.442499 444.627501,577.442499 C445.436001,577.442499 446.475501,577.641999 447.336501,578.712999 L448.680502,577.746999 C447.840502,576.497498 446.496501,575.825498 444.711501,575.825498 C441.477501,575.825498 439.094,578.408499 439.094,581.516499 C439.094,584.1625 440.963,586.189 443.808501,586.189 Z M454.172001,586.21 C455.379501,586.21 456.324501,585.8215 457.122501,585.244 L456.408501,583.921 C455.747001,584.3725 455.085501,584.6035 454.371501,584.6035 C453.279501,584.6035 452.544501,583.8895 452.880501,582.282999 L453.878001,577.589499 L457.910001,577.589499 L458.246002,576.024998 L454.203501,576.024998 L454.875501,572.895998 L453.143001,572.895998 L452.471001,576.024998 L450.392,576.024998 L450.056,577.589499 L452.135001,577.589499 L451.148,582.240999 C450.602,584.8135 451.872501,586.21 454.172001,586.21 Z M463.895001,586.2205 C467.150001,586.2205 469.596502,583.627 469.596502,580.518999 C469.596502,577.809999 467.633002,575.814998 464.766501,575.814998 C461.511501,575.814998 459.065,578.408499 459.065,581.505999 C459.065,584.236 461.0495,586.2205 463.895001,586.2205 Z M464.010501,584.6035 C462.141501,584.6035 460.829,583.2805 460.829,581.411499 C460.829,579.248499 462.456501,577.431999 464.630001,577.431999 C466.520001,577.431999 467.843002,578.754999 467.843002,580.623999 C467.843002,582.786999 466.194501,584.6035 464.010501,584.6035 Z M472.8725,586 L474.059001,580.487499 C474.500001,578.450499 475.844001,577.452999 477.366501,577.452999 C477.912501,577.452999 478.490001,577.589499 478.868001,577.841499 L479.529501,576.213998 C479.036001,575.961998 478.364001,575.814998 477.755001,575.814998 C476.757501,575.814998 475.655001,576.140498 474.752001,577.095999 L474.983001,576.024998 L473.2715,576.024998 L471.1505,586 L472.8725,586 Z M483.498501,586.21 C485.966001,586.21 487.614501,584.992 487.824501,583.207 C487.992501,581.705499 487.037001,580.613499 484.800501,580.277499 L483.960501,580.151499 C482.826501,579.983499 482.175501,579.594999 482.280501,578.670999 C482.375001,577.820499 483.288501,577.316499 484.611501,577.316499 C485.756001,577.316499 487.121001,577.725999 487.866501,578.240499 L488.769502,576.927999 C487.803501,576.266498 486.333501,575.825498 484.632501,575.825498 C482.333001,575.825498 480.716,576.875499 480.4955,578.754999 C480.317,580.245999 481.2305,581.358999 483.456501,581.684499 L484.338501,581.820999 C485.577501,582.009999 486.134001,582.482499 486.050001,583.2385 C485.945001,584.1835 484.958001,584.7085 483.477501,584.7085 C482.112501,584.7085 480.9155,584.215 480.065,583.564 L479.1095,584.8345 C480.2645,585.7165 481.997,586.21 483.498501,586.21 Z" id="createpersistentqueriesmanageconnectors" fill="#D839FD" fill-rule="nonzero"></path>
        <path d="M145.408251,150 L145.408251,145.883999 L146.332251,145.883999 L149.261751,150 L152.632252,150 L148.589751,144.613499 L152.600752,139.825498 L149.240751,139.825498 L146.374251,143.447999 L145.408251,143.447999 L145.408251,134.879998 L142.66775,134.879998 L142.66775,150 L145.408251,150 Z M157.976751,150.2625 C160.927251,150.2625 162.649252,148.908 162.649252,146.807999 C162.649252,145.085999 161.420751,144.098999 159.215751,143.762999 L158.312751,143.626499 C157.388751,143.489999 156.653751,143.342999 156.653751,142.754999 C156.653751,142.198499 157.178751,141.830999 158.218251,141.830999 C159.362751,141.841499 160.654251,142.261499 161.462751,142.660499 L162.386752,140.528998 C161.032251,139.867498 159.761751,139.562998 158.134251,139.562998 C155.45675,139.562998 153.83975,140.801998 153.83975,142.891499 C153.83975,144.623999 155.00525,145.652999 157.357251,145.978499 L158.186751,146.093999 C159.362751,146.261999 159.877251,146.534999 159.877251,147.0285 C159.877251,147.627 159.268251,147.984 157.997751,147.984 C156.464751,147.984 155.40425,147.564 154.53275,146.9865 L153.45125,149.0655 C154.77425,150 156.590751,150.2625 157.976751,150.2625 Z M174.829252,154.200001 L174.829252,139.825498 L172.151751,139.825498 L172.151751,140.948999 C171.479751,140.119498 170.503251,139.552498 169.106751,139.552498 C166.30325,139.552498 164.18225,141.851999 164.18225,144.907499 C164.18225,147.963 166.30325,150.2625 169.106751,150.2625 C170.471751,150.2625 171.437751,149.727 172.099251,148.9395 L172.099251,154.200001 L174.829252,154.200001 Z M169.610751,147.711 C168.004251,147.711 166.985751,146.461499 166.985751,144.907499 C166.985751,143.353499 168.004251,142.103999 169.610751,142.103999 C171.175251,142.103999 172.235751,143.300999 172.235751,144.907499 C172.235751,146.513999 171.175251,147.711 169.610751,147.711 Z M180.446751,150 L180.446751,134.879998 L177.70625,134.879998 L177.70625,150 L180.446751,150 Z M189.613251,150 C194.212252,150 197.246753,147.081 197.246753,142.649999 C197.246753,138.218998 194.212252,135.299998 189.613251,135.299998 L183.55475,135.299998 L183.55475,150 L189.613251,150 Z M189.581751,147.2595 L186.484251,147.2595 L186.484251,138.040498 L189.581751,138.040498 C192.679252,138.040498 194.180752,139.951498 194.180752,142.649999 C194.180752,145.316999 192.679252,147.2595 189.581751,147.2595 Z M206.245251,150 C209.773252,150 211.778752,148.614 211.778752,145.789499 C211.778752,144.203999 210.676252,142.943999 209.332252,142.492499 C210.560752,142.040999 211.463752,140.854499 211.463752,139.373998 C211.463752,136.570498 209.311252,135.299998 205.888251,135.299998 L199.88225,135.299998 L199.88225,150 L206.245251,150 Z M205.814751,141.316499 L202.811751,141.316499 L202.811751,137.882998 L205.804251,137.882998 C207.253251,137.882998 208.408252,138.197998 208.408252,139.583998 C208.408252,141.011999 207.274251,141.316499 205.814751,141.316499 Z M206.098251,147.4275 L202.811751,147.417 L202.811751,143.888999 L206.098251,143.888999 C207.715252,143.888999 208.733752,144.266999 208.733752,145.642499 C208.733752,147.0495 207.715252,147.4275 206.098251,147.4275 Z M226.625751,150.273 C229.313752,150.273 231.529252,149.076 232.831252,147.165 L230.437252,145.442999 C229.555252,146.723999 228.232252,147.459 226.604751,147.459 C224.011251,147.459 221.974251,145.600499 221.963751,142.649999 C221.963751,139.793998 223.937751,137.840998 226.604751,137.840998 C228.242752,137.840998 229.576252,138.596998 230.405752,139.867498 L232.925752,138.323998 C231.728752,136.265998 229.334752,135.026998 226.625751,135.026998 C222.100251,135.026998 218.90825,138.229498 218.90825,142.649999 C218.90825,147.0705 222.100251,150.273 226.625751,150.273 Z M246.166252,150 L246.166252,147.2595 L238.396251,147.2595 L238.396251,135.299998 L235.46675,135.299998 L235.46675,150 L246.166252,150 Z M251.101251,150 L251.101251,135.299998 L248.17175,135.299998 L248.17175,150 L251.101251,150 Z" id="ksqlDBCLI" fill="#D839FD" fill-rule="nonzero"></path>
        <rect id="Rectangle" stroke="#D938FD" stroke-width="2" x="80" y="176" width="235" height="41" rx="9"></rect>
        <path d="M154.608751,203 L154.608751,197.151499 L155.469751,197.151499 L159.753752,203 L163.302752,203 L158.777251,197.109499 C161.601752,196.836499 163.281752,195.187999 163.281752,192.772998 C163.281752,189.958998 161.402252,188.299998 157.895251,188.299998 L151.67925,188.299998 L151.67925,203 L154.608751,203 Z M157.842751,194.599999 L154.608751,194.599999 L154.608751,190.998498 L157.842751,190.998498 C159.396752,190.998498 160.268252,191.554998 160.268252,192.772998 C160.268252,194.011999 159.438752,194.599999 157.842751,194.599999 Z M176.942252,203 L176.942252,200.312 L168.888751,200.312 L168.888751,196.930999 L176.490752,196.930999 L176.490752,194.242999 L168.888751,194.242999 L168.888751,190.987998 L176.858252,190.987998 L176.858252,188.299998 L165.95925,188.299998 L165.95925,203 L176.942252,203 Z M185.468251,203.2625 C188.628752,203.2625 191.484752,201.719 191.484752,198.474499 C191.484752,195.912499 189.426752,194.788999 186.801751,194.358499 L185.972251,194.221999 C184.208251,193.927999 182.937751,193.602498 182.937751,192.520998 C182.937751,191.407998 184.103251,190.756998 185.751751,190.756998 C187.358251,190.756998 188.765252,191.292498 189.920252,192.006498 L191.306252,189.612498 C189.458252,188.509998 187.746752,188.047998 185.688751,188.047998 C182.559751,188.047998 179.82975,189.643998 179.82975,192.709998 C179.82975,195.366499 181.719751,196.510999 184.313251,196.920499 L185.247751,197.067499 C187.295251,197.392999 188.366252,197.770999 188.366252,198.789499 C188.366252,199.923499 187.106251,200.564 185.478751,200.564 C183.588751,200.564 181.856251,199.828999 180.79575,198.978499 L179.27325,201.341 C180.84825,202.6115 183.242251,203.2625 185.468251,203.2625 Z M200.304751,203 L200.304751,191.040498 L204.861752,191.040498 L204.861752,188.299998 L192.81825,188.299998 L192.81825,191.040498 L197.375251,191.040498 L197.375251,203 L200.304751,203 Z M213.671251,203 L214.952251,199.576999 L221.220752,199.576999 L222.501752,203 L225.630752,203 L219.908252,188.299998 L216.338251,188.299998 L210.61575,203 L213.671251,203 Z M220.212752,196.878499 L215.960251,196.878499 L218.091751,191.197998 L220.212752,196.878499 Z M230.450251,203 L230.450251,197.623999 L233.537251,197.623999 C237.023252,197.623999 238.892252,195.796999 238.892252,192.972498 C238.892252,190.126998 237.023252,188.299998 233.516251,188.299998 L227.52075,188.299998 L227.52075,203 L230.450251,203 Z M233.463751,194.946499 L230.450251,194.946499 L230.450251,190.998498 L233.463751,190.998498 C235.059752,190.998498 235.889252,191.659998 235.889252,192.972498 C235.889252,194.295499 235.059752,194.946499 233.463751,194.946499 Z M244.320751,203 L244.320751,188.299998 L241.39125,188.299998 L241.39125,203 L244.320751,203 Z" id="RESTAPI" fill="#D839FD" fill-rule="nonzero"></path>
        <rect id="Rectangle" stroke="#D938FD" stroke-width="2" x="80" y="229" width="235" height="41" rx="9"></rect>
        <path d="M158.010751,256.2625 C161.076751,256.2625 163.281752,254.3305 163.281752,250.644999 L163.281752,241.299998 L160.352251,241.299998 L160.352251,250.371999 C160.352251,252.492999 159.428251,253.459 157.874251,253.459 C156.519751,253.459 155.61675,252.828999 155.01825,252.093999 L153.31725,254.2255 C154.11525,255.202 155.57475,256.2625 158.010751,256.2625 Z M170.600251,256.2625 C171.996751,256.2625 172.983751,255.6955 173.645251,254.8765 L173.645251,256 L176.322752,256 L176.322752,245.825498 L173.645251,245.825498 L173.645251,246.948999 C172.973251,246.119498 171.996751,245.552498 170.600251,245.552498 C167.79675,245.552498 165.67575,247.851999 165.67575,250.907499 C165.67575,253.963 167.79675,256.2625 170.600251,256.2625 Z M171.104251,253.711 C169.497751,253.711 168.479251,252.461499 168.479251,250.907499 C168.479251,249.353499 169.497751,248.103999 171.104251,248.103999 C172.668751,248.103999 173.729251,249.300999 173.729251,250.907499 C173.729251,252.513999 172.668751,253.711 171.104251,253.711 Z M185.132251,256 L189.111752,245.825498 L186.224251,245.825498 L183.567751,253.1125 L180.932251,245.825498 L177.95025,245.825498 L181.971751,256 L185.132251,256 Z M195.033751,256.2625 C196.430251,256.2625 197.417251,255.6955 198.078751,254.8765 L198.078751,256 L200.756252,256 L200.756252,245.825498 L198.078751,245.825498 L198.078751,246.948999 C197.406751,246.119498 196.430251,245.552498 195.033751,245.552498 C192.23025,245.552498 190.10925,247.851999 190.10925,250.907499 C190.10925,253.963 192.23025,256.2625 195.033751,256.2625 Z M195.537751,253.711 C193.931251,253.711 192.912751,252.461499 192.912751,250.907499 C192.912751,249.353499 193.931251,248.103999 195.537751,248.103999 C197.102251,248.103999 198.162751,249.300999 198.162751,250.907499 C198.162751,252.513999 197.102251,253.711 195.537751,253.711 Z M210.668251,256 L211.949251,252.576999 L218.217752,252.576999 L219.498752,256 L222.627752,256 L216.905252,241.299998 L213.335251,241.299998 L207.61275,256 L210.668251,256 Z M217.209752,249.878499 L212.957251,249.878499 L215.088751,244.197998 L217.209752,249.878499 Z M227.447251,256 L227.447251,250.623999 L230.534251,250.623999 C234.020252,250.623999 235.889252,248.796999 235.889252,245.972498 C235.889252,243.126998 234.020252,241.299998 230.513251,241.299998 L224.51775,241.299998 L224.51775,256 L227.447251,256 Z M230.460751,247.946499 L227.447251,247.946499 L227.447251,243.998498 L230.460751,243.998498 C232.056752,243.998498 232.886252,244.659998 232.886252,245.972498 C232.886252,247.295499 232.056752,247.946499 230.460751,247.946499 Z M241.317751,256 L241.317751,241.299998 L238.38825,241.299998 L238.38825,256 L241.317751,256 Z" id="JavaAPI" fill="#D839FD" fill-rule="nonzero"></path>
        <path d="M198,294 C198,460.52381 198,543.785714 198,543.785714 C197,563 198,563 217,563 C237.752026,563 555.632813,563 568.816406,563 C582,563 585,563 585,550.864662 C585,542.774436 585,532.998747 585,521.537594" id="Path-3" stroke="#D938FD" stroke-width="5"></path>
        <rect id="Rectangle" stroke="#D938FD" stroke-width="2" x="80" y="123" width="235" height="41" rx="9"></rect>
        <g id="CLI-group" transform="translate(77.000000, 357.000000)">
            <g id="CLI">
                <mask id="mask-2" fill="white">
                    <use xlink:href="#path-1"></use>
                </mask>
                <rect stroke="#838383" x="0.5" y="0.5" width="241" height="134" rx="4"></rect>
                <rect id="Rectangle" fill="#000000" mask="url(#mask-2)" x="0" y="16" width="242" height="119"></rect>
                <rect id="Rectangle" fill="#333333" mask="url(#mask-2)" transform="translate(121.000000, 8.000000) scale(1, -1) translate(-121.000000, -8.000000) " x="0" y="0" width="242" height="16"></rect>
                <g id="KSQL&gt;-CREATE-TABLE-…" mask="url(#mask-2)" fill-rule="nonzero">
                    <g transform="translate(13.204102, 31.640625)">
                        <path d="M1.78417969,13.359375 L1.78417969,8.2265625 L3.13769531,6.78515625 L7.41796875,13.359375 L9.5625,13.359375 L4.30664062,5.59863281 L9.41308594,0.237304688 L7.33007813,0.237304688 L1.78417969,6.07324219 L1.78417969,0.237304688 L0,0.237304688 L0,13.359375 L1.78417969,13.359375 Z M14.7480469,13.6142578 C16.2246094,13.6142578 17.3496094,13.2861328 18.1230469,12.6298828 C18.8964844,11.9736328 19.2832031,11.0214844 19.2832031,9.7734375 C19.2832031,8.71289062 19.0019531,7.875 18.4394531,7.25976563 C17.8769531,6.64453125 16.9804688,6.19335938 15.75,5.90625 L15.75,5.90625 L14.8183594,5.6953125 C13.9453125,5.49023438 13.3491211,5.23535156 13.0297852,4.93066406 C12.7104492,4.62597656 12.5507812,4.18359375 12.5507812,3.60351562 C12.5507812,2.94140625 12.7939453,2.41552734 13.2802734,2.02587891 C13.7666016,1.63623047 14.4287109,1.44140625 15.2666016,1.44140625 C15.8173828,1.44140625 16.3637695,1.52929688 16.9057617,1.70507812 C17.4477539,1.88085938 17.9882812,2.14160156 18.5273438,2.48730469 L18.5273438,2.48730469 L18.5273438,0.685546875 C17.9121094,0.45703125 17.3261719,0.285644531 16.7695312,0.171386719 C16.2128906,0.0571289063 15.6826172,0 15.1787109,0 C13.8720703,0 12.824707,0.353027344 12.0366211,1.05908203 C11.2485352,1.76513672 10.8544922,2.70410156 10.8544922,3.87597656 C10.8544922,4.81347656 11.1298828,5.56054688 11.6806641,6.1171875 C12.2314453,6.67382812 13.1162109,7.08984375 14.3349609,7.36523438 L14.3349609,7.36523438 L15.2841797,7.58496094 C16.1337891,7.77246094 16.7299805,8.0390625 17.0727539,8.38476562 C17.4155273,8.73046875 17.5869141,9.23144531 17.5869141,9.88769531 C17.5869141,10.6083984 17.3378906,11.1694336 16.8398438,11.5708008 C16.3417969,11.972168 15.6445312,12.1728516 14.7480469,12.1728516 C14.1386719,12.1728516 13.5336914,12.0732422 12.9331055,11.8740234 C12.3325195,11.6748047 11.6953125,11.3613281 11.0214844,10.9335938 L11.0214844,10.9335938 L11.0214844,12.8232422 C11.6484375,13.0869141 12.2724609,13.284668 12.8935547,13.4165039 C13.5146484,13.5483398 14.1328125,13.6142578 14.7480469,13.6142578 Z M28.2832031,15.7324219 L29.6103516,14.8535156 L27.8525391,13.1835938 C28.6669922,12.7617188 29.2749023,12.0249023 29.6762695,10.9731445 C30.0776367,9.92138672 30.2783203,8.53417969 30.2783203,6.81152344 C30.2783203,4.52050781 29.9165039,2.8125 29.1928711,1.6875 C28.4692383,0.5625 27.3662109,0 25.8837891,0 C24.4072266,0 23.3071289,0.5625 22.5834961,1.6875 C21.8598633,2.8125 21.4980469,4.52050781 21.4980469,6.81152344 C21.4980469,9.09667969 21.8598633,10.8017578 22.5834961,11.9267578 C23.3071289,13.0517578 24.4013672,13.6142578 25.8662109,13.6142578 C25.9130859,13.6142578 25.9746094,13.6113281 26.0507812,13.6054688 C26.1269531,13.5996094 26.1855469,13.5966797 26.2265625,13.5966797 L26.2265625,13.5966797 L28.2832031,15.7324219 Z M25.8837891,12.1728516 C24.9873047,12.1728516 24.3413086,11.7597656 23.9458008,10.9335938 C23.550293,10.1074219 23.3525391,8.73339844 23.3525391,6.81152344 C23.3525391,4.88378906 23.550293,3.50683594 23.9458008,2.68066406 C24.3413086,1.85449219 24.9873047,1.44140625 25.8837891,1.44140625 C26.7861328,1.44140625 27.4350586,1.85449219 27.8305664,2.68066406 C28.2260742,3.50683594 28.4238281,4.88378906 28.4238281,6.81152344 C28.4238281,8.73925781 28.2260742,10.1147461 27.8305664,10.9379883 C27.4350586,11.7612305 26.7861328,12.1728516 25.8837891,12.1728516 Z M41.3173828,13.359375 L41.3173828,11.8652344 L34.9804688,11.8652344 L34.9804688,0.237304688 L33.1962891,0.237304688 L33.1962891,13.359375 L41.3173828,13.359375 Z M42.9169922,12.1201172 L52.2070312,8.44628906 L52.2070312,6.98730469 L42.9169922,3.31347656 L42.9169922,4.91308594 L50.3876953,7.72558594 L42.9169922,10.5117188 L42.9169922,12.1201172 Z" id="KSQL&gt;" fill="#AAAAAA"></path>
                        <path d="M70.3476562,13.6142578 C70.8808594,13.6142578 71.3847656,13.5541992 71.859375,13.434082 C72.3339844,13.3139648 72.796875,13.1337891 73.2480469,12.8935547 L73.2480469,12.8935547 L73.2480469,11.0742188 C72.8203125,11.4316406 72.3588867,11.7041016 71.8637695,11.8916016 C71.3686523,12.0791016 70.8632812,12.1728516 70.3476562,12.1728516 C69.1933594,12.1728516 68.3291016,11.7275391 67.7548828,10.8369141 C67.1806641,9.94628906 66.8935547,8.60449219 66.8935547,6.81152344 C66.8935547,5.01269531 67.1806641,3.66796875 67.7548828,2.77734375 C68.3291016,1.88671875 69.1933594,1.44140625 70.3476562,1.44140625 C70.8515625,1.44140625 71.3525391,1.53515625 71.8505859,1.72265625 C72.3486328,1.91015625 72.8144531,2.18261719 73.2480469,2.54003906 L73.2480469,2.54003906 L73.2480469,0.720703125 C72.796875,0.48046875 72.3339844,0.300292969 71.859375,0.180175781 C71.3847656,0.0600585938 70.8808594,0 70.3476562,0 C68.6777344,0 67.3754883,0.599121094 66.440918,1.79736328 C65.5063477,2.99560547 65.0390625,4.66699219 65.0390625,6.81152344 C65.0390625,8.96777344 65.503418,10.640625 66.4321289,11.8300781 C67.3608398,13.0195312 68.6660156,13.6142578 70.3476562,13.6142578 Z M77.6953125,13.359375 L77.6953125,7.81347656 L79.3916016,7.81347656 C79.9716797,7.81347656 80.4418945,7.94970703 80.8022461,8.22216797 C81.1625977,8.49462891 81.5683594,9.10253906 82.0195312,10.0458984 L82.0195312,10.0458984 L83.5839844,13.359375 L85.4912109,13.359375 L83.7070312,9.7734375 C83.2265625,8.80078125 82.8251953,8.15185547 82.5029297,7.82666016 C82.1806641,7.50146484 81.7910156,7.28027344 81.3339844,7.16308594 C82.1894531,7.04003906 82.8530273,6.70458984 83.324707,6.15673828 C83.7963867,5.60888672 84.0322266,4.90136719 84.0322266,4.03417969 C84.0322266,2.80371094 83.6484375,1.86328125 82.8808594,1.21289062 C82.1132812,0.5625 81.0087891,0.237304688 79.5673828,0.237304688 L79.5673828,0.237304688 L75.9111328,0.237304688 L75.9111328,13.359375 L77.6953125,13.359375 Z M79.6376953,6.35449219 L77.6953125,6.35449219 L77.6953125,1.69628906 L79.5673828,1.69628906 C80.4111328,1.69628906 81.0541992,1.89697266 81.496582,2.29833984 C81.9389648,2.69970703 82.1601562,3.27832031 82.1601562,4.03417969 C82.1601562,4.81933594 81.9521484,5.40234375 81.5361328,5.78320312 C81.1201172,6.1640625 80.4873047,6.35449219 79.6376953,6.35449219 L79.6376953,6.35449219 Z M95.1767578,13.359375 L95.1767578,11.8652344 L88.9980469,11.8652344 L88.9980469,6.75878906 L94.7460938,6.75878906 L94.7460938,5.26464844 L88.9980469,5.26464844 L88.9980469,1.73144531 L95.0097656,1.73144531 L95.0097656,0.237304688 L87.2226562,0.237304688 L87.2226562,13.359375 L95.1767578,13.359375 Z M98.4902344,13.359375 L99.4394531,9.94042969 L104.036133,9.94042969 L105.00293,13.359375 L106.839844,13.359375 L102.823242,0.237304688 L100.669922,0.237304688 L96.6533203,13.359375 L98.4902344,13.359375 Z M103.614258,8.51660156 L99.8701172,8.51660156 L101.742188,1.80175781 L103.614258,8.51660156 Z M113.484375,13.359375 L113.484375,1.73144531 L117.588867,1.73144531 L117.588867,0.237304688 L107.578125,0.237304688 L107.578125,1.73144531 L111.700195,1.73144531 L111.700195,13.359375 L113.484375,13.359375 Z M127.6875,13.359375 L127.6875,11.8652344 L121.508789,11.8652344 L121.508789,6.75878906 L127.256836,6.75878906 L127.256836,5.26464844 L121.508789,5.26464844 L121.508789,1.73144531 L127.520508,1.73144531 L127.520508,0.237304688 L119.733398,0.237304688 L119.733398,13.359375 L127.6875,13.359375 Z M145.995117,13.359375 L145.995117,1.73144531 L150.099609,1.73144531 L150.099609,0.237304688 L140.088867,0.237304688 L140.088867,1.73144531 L144.210938,1.73144531 L144.210938,13.359375 L145.995117,13.359375 Z M152.674805,13.359375 L153.624023,9.94042969 L158.220703,9.94042969 L159.1875,13.359375 L161.024414,13.359375 L157.007812,0.237304688 L154.854492,0.237304688 L150.837891,13.359375 L152.674805,13.359375 Z M157.798828,8.51660156 L154.054688,8.51660156 L155.926758,1.80175781 L157.798828,8.51660156 Z M166.693359,13.359375 C168.234375,13.359375 169.394531,13.0561523 170.173828,12.449707 C170.953125,11.8432617 171.342773,10.9453125 171.342773,9.75585938 C171.342773,8.58398438 171.098145,7.69482422 170.608887,7.08837891 C170.119629,6.48193359 169.444336,6.11425781 168.583008,5.98535156 C169.350586,5.86816406 169.92627,5.578125 170.310059,5.11523438 C170.693848,4.65234375 170.885742,4.13671875 170.885742,3.56835938 C170.885742,2.5078125 170.522461,1.6875 169.795898,1.10742188 C169.069336,0.52734375 168.035156,0.237304688 166.693359,0.237304688 L166.693359,0.237304688 L162.808594,0.237304688 L162.808594,13.359375 L166.693359,13.359375 Z M166.658203,5.29980469 L164.592773,5.29980469 L164.592773,1.69628906 L166.658203,1.69628906 C167.525391,1.69628906 168.147949,1.84277344 168.525879,2.13574219 C168.903809,2.42871094 169.092773,2.90625 169.092773,3.56835938 C169.092773,4.06640625 168.900879,4.47949219 168.51709,4.80761719 C168.133301,5.13574219 167.513672,5.29980469 166.658203,5.29980469 L166.658203,5.29980469 Z M166.693359,11.9003906 L164.592773,11.9003906 L164.592773,6.74121094 L166.693359,6.74121094 C167.677734,6.74121094 168.401367,6.94189453 168.864258,7.34326172 C169.327148,7.74462891 169.558594,8.49023438 169.558594,9.58007812 C169.558594,10.40625 169.338867,10.9995117 168.899414,11.3598633 C168.459961,11.7202148 167.724609,11.9003906 166.693359,11.9003906 L166.693359,11.9003906 Z M182.197266,13.359375 L182.197266,11.8652344 L175.860352,11.8652344 L175.860352,0.237304688 L174.076172,0.237304688 L174.076172,13.359375 L182.197266,13.359375 Z M192.708984,13.359375 L192.708984,11.8652344 L186.530273,11.8652344 L186.530273,6.75878906 L192.27832,6.75878906 L192.27832,5.26464844 L186.530273,5.26464844 L186.530273,1.73144531 L192.541992,1.73144531 L192.541992,0.237304688 L184.754883,0.237304688 L184.754883,13.359375 L192.708984,13.359375 Z M207.615234,13.359375 L207.615234,10.6787109 L205.400391,10.6787109 L205.400391,13.359375 L207.615234,13.359375 Z M214.813477,13.359375 L214.813477,10.6787109 L212.598633,10.6787109 L212.598633,13.359375 L214.813477,13.359375 Z M211.209961,13.359375 L211.209961,10.6787109 L208.995117,10.6787109 L208.995117,13.359375 L211.209961,13.359375 Z" id="CREATETABLE…" fill="#FFFFFF"></path>
                    </g>
                </g>
                <circle id="Oval" fill="#4B4B4B" mask="url(#mask-2)" cx="10.5" cy="9.5" r="4.5"></circle>
                <circle id="Oval" fill="#4B4B4B" mask="url(#mask-2)" cx="23.5" cy="9.5" r="4.5"></circle>
                <circle id="Oval" fill="#4B4B4B" mask="url(#mask-2)" cx="36.5" cy="9.5" r="4.5"></circle>
            </g>
            <rect id="Rectangle" stroke="#D938FD" stroke-width="2" x="1" y="1" width="240" height="133" rx="4"></rect>
        </g>
    </g>
</svg>