<svg id="Layer_1" data-name="Layer 1" xmlns="http://www.w3.org/2000/svg" viewBox="70 150 860 380"><defs><style>
  .dls-1,.dls-10,.dls-11,.dls-14,.dls-15,.dls-16,.dls-7,.dls-8,.dls-9{fill:none;} .dls-1,.dls-2,.dls-4,.dls-7{stroke:#6a6a6e;}.dls-1,.dls-10,.dls-14,.dls-15,.dls-16,.dls-2,.dls-4,.dls-7,.dls-8,.dls-9{stroke-linecap:round;stroke-linejoin:round;}.dls-1,.dls-10,.dls-2,.dls-8,.dls-9{stroke-width:2px;}
.dls-2,.dls-4{fill:none;}
.dls-3{font-size:12.76px;}
.dls-18,.dls-3,.dls-5{font-family:MarkOT-Medium, Mark OT;font-weight:500;}
.dls-4,.dls-7{stroke-width:4.33px;}
.dls-5{font-size:27.65px;}
.dls-6{letter-spacing:-0.02em;}
.dls-10,.dls-14,.dls-15,.dls-16,.dls-8,.dls-9{stroke:#6a6a6e;}
.dls-9{stroke-dasharray:24.1 4.82;}
.dls-10{stroke-dasharray:4.82 0 24.1 4.82;}
.dls-11{stroke:#6a6a6e;stroke-miterlimit:10;stroke-width:10px;}
.dls-12{fill:#6a6a6e;}
.dls-13{font-size:29.46px;fill:#6a6a6e;font-family:MarkOT-Medium, Mark OT;font-weight:500;}
.dls-14,.dls-15,.dls-16{stroke-width:4.91px;}
.dls-15{stroke-dasharray:127.74 25.55;}
.dls-16{stroke-dasharray:25.55 0 127.74 25.55;}
.dls-17{stroke:#6a6a6e;stroke-width:2px;fill:none;}
.dls-18{font-size:15.85px;}
.dls-19{letter-spacing:-0.01em;}
.dls-20{letter-spacing:-0.02em;}
.dls-21{letter-spacing:0em;}
.dls-22{letter-spacing:-0.01em;}
.dls-23{letter-spacing:0em;}
.dls-24{letter-spacing:-0.01em;}
.dls-25{letter-spacing:-0.01em;}
.dls-26{letter-spacing:-0.01em;}
.dls-27{letter-spacing:-0.01em;}
.dls-28{letter-spacing:0em;}
.dls-29{letter-spacing:-0.01em;}
.dls-30{letter-spacing:0em;}
.dls-31{letter-spacing:0em;}
.kafka {fill: #6a6a6e;}
text {fill: #6a6a6e;}
</style></defs><title>what is ksqldb</title><path d="M863.64,278.2a23.13,23.13,0,0,0-17.81,8.36l-10.46-6a29.09,29.09,0,0,0-.51-21.28l10.95-6.32a23.22,23.22,0,1,0-4.18-7.53l-11.26,6.5a29.08,29.08,0,0,0-17.45-10V228.37a23.21,23.21,0,1,0-8.61.2V241.7a29.06,29.06,0,0,0,0,57.64v11.59a23.17,23.17,0,1,0,8.61.2V299.18a29.11,29.11,0,0,0,18.31-11.11l10.41,6a23.19,23.19,0,1,0,22-15.88Zm-11-40a11.12,11.12,0,1,1,11.12,11.13A11.13,11.13,0,0,1,852.61,238.17Zm-33.36,95.42a11.13,11.13,0,1,1-11.13-11.13A11.14,11.14,0,0,1,819.25,333.59ZM797,206a11.13,11.13,0,1,1,11.12,11.12A11.13,11.13,0,0,1,797,206Zm11.12,79.31a14.93,14.93,0,1,1,14.93-14.92A14.93,14.93,0,0,1,808.12,285.29Zm66.73,16.1a11.12,11.12,0,1,1-11.12-11.12A11.13,11.13,0,0,1,874.85,301.39Z" class="kafka"/><rect class="dls-1" x="91.29" y="355.12" width="57.41" height="57.41" rx="6.63"/><rect class="dls-1" x="97.87" y="361.7" width="44.25" height="44.25" rx="5.11"/><rect class="dls-2" x="97.87" y="439.36" width="44.25" height="44.25" rx="5.11"/><text class="dls-3" transform="translate(111 237.15)">DB</text><text class="dls-3" transform="translate(106.67 388.95)">APP</text><text class="dls-3" transform="translate(106.67 466.41)">APP</text><rect class="dls-1" x="91.29" y="432.59" width="57.41" height="57.41" rx="6.63"/><rect class="dls-4" x="796.55" y="391.28" width="95.89" height="95.89" rx="11.07"/><text class="dls-5" transform="translate(815.61 449.88)">APP</text><text class="dls-3" transform="translate(686.21 418.41)">PUL<tspan class="dls-6" x="25.66" y="0">L</tspan></text><text class="dls-3" transform="translate(684.56 501.41)">PUSH</text><rect class="dls-7" x="782.29" y="376.59" width="124.41" height="124.41" rx="14.36"/><path class="dls-8" d="M147,206.8c0-3.75-12.38-6.79-27.65-6.79s-27.66,3-27.66,6.79v41.73h0c0,3.75,12.38,6.79,27.66,6.79s27.65-3,27.65-6.79h0Z"/><path class="dls-8" d="M91.72,206.8a2.9,2.9,0,0,1,1.48-2.2"/><path class="dls-9" d="M93.2,204.6C96.78,202,106.48,200.15,118,200"/><path class="dls-10" d="M121.45,200c14.3.26,25.58,3.19,25.58,6.77,0,3.75-12.38,6.79-27.65,6.79-2.77,0-5.44-.1-8-.28"/><path class="dls-8" d="M109,213.1c-.94-.09-1.85-.2-2.73-.32"/><text class="dls-3" transform="translate(111 314.78)">DB</text><path class="dls-8" d="M147,284.43c0-3.75-12.38-6.79-27.65-6.79s-27.66,3-27.66,6.79v41.73h0c0,3.75,12.38,6.79,27.66,6.79s27.65-3,27.65-6.79h0Z"/><path class="dls-8" d="M91.72,284.43a2.9,2.9,0,0,1,1.48-2.2"/><path class="dls-9" d="M93.2,282.23c3.58-2.57,13.28-4.45,24.84-4.58"/><path class="dls-10" d="M121.45,277.66c14.3.26,25.58,3.19,25.58,6.77,0,3.75-12.38,6.79-27.65,6.79-2.77,0-5.44-.1-8-.28"/><path class="dls-8" d="M109,290.73c-.94-.09-1.85-.2-2.73-.32"/><line class="dls-11" x1="162.92" y1="228.73" x2="287.21" y2="228.73"/><polygon class="dls-12" points="284 239.7 303 228.73 284 217.76 284 239.7"/><line class="dls-11" x1="663" y1="478.73" x2="734.21" y2="478.73"/><polygon class="dls-12" points="731 489.7 750 478.73 731 467.76 731 489.7"/><line class="dls-11" x1="162.92" y1="304.39" x2="287.21" y2="304.39"/><polygon class="dls-12" points="284 315.36 303 304.39 284 293.42 284 315.36"/><line class="dls-11" x1="162.92" y1="382.37" x2="287.21" y2="382.37"/><polygon class="dls-12" points="284 393.34 303 382.37 284 371.4 284 393.34"/><line class="dls-11" x1="162.92" y1="461.02" x2="287.21" y2="461.02"/><polygon class="dls-12" points="284 471.99 303 461.02 284 450.05 284 471.99"/><text class="dls-13" transform="translate(425.66 241.85)">ksqlDB</text><path class="dls-14" d="M623,233.85c0-19.8-65.37-35.85-146-35.85s-146,16.05-146,35.85v220.3h0C331,474,396.37,490,477,490S623,474,623,454.15h0Z"/><path class="dls-14" d="M331,233.85c0-3.85,2.47-7.56,7-11"/><path class="dls-15" d="M338,222.82c18.64-14.17,72.2-24.48,135.77-24.81"/><path class="dls-16" d="M487.58,198.09C563.28,199.42,623,214.92,623,233.85c0,19.8-65.37,35.84-146,35.84-14.94,0-29.35-.55-42.92-1.57"/><path class="dls-14" d="M421.36,267c-4.61-.47-9.11-1-13.47-1.57"/><rect class="dls-17" x="381.96" y="292.59" width="194.06" height="43.26" rx="5.53"/><text class="dls-18" transform="translate(407.07 318.68)"><tspan class="dls-19">S</tspan><tspan x="10.57" y="0">t</tspan><tspan class="dls-20" x="17.97" y="0">r</tspan><tspan class="dls-21" x="24.36" y="0">eam P</tspan><tspan class="dls-20" x="71.87" y="0">r</tspan><tspan x="78.26" y="0">o</tspan><tspan class="dls-22" x="87.78" y="0">c</tspan><tspan class="dls-23" x="95.81" y="0">es</tspan><tspan x="112.56" y="0">sing</tspan></text><rect class="dls-17" x="381.96" y="411.74" width="194.06" height="43.26" rx="5.53"/><text class="dls-18" transform="translate(405.92 437.83)">Ma<tspan class="dls-24" x="24.5" y="0">t</tspan><tspan x="31.8" y="0">eriali</tspan><tspan class="dls-25" x="69.74" y="0">z</tspan><tspan class="dls-21" x="77.82" y="0">ed</tspan><tspan class="dls-26" x="96.38" y="0"> </tspan><tspan class="dls-21" x="100.12" y="0">Vi</tspan><tspan class="dls-27" x="115.72" y="0">e</tspan><tspan class="dls-28" x="124.38" y="0">ws</tspan></text><rect class="dls-17" x="381.96" y="352.98" width="194.06" height="43.26" rx="5.53"/><text class="dls-18" transform="translate(434.75 379.07)"><tspan class="dls-29">C</tspan><tspan x="11.77" y="0">onne</tspan><tspan class="dls-30" x="48.85" y="0">c</tspan><tspan class="dls-24" x="57.12" y="0">t</tspan><tspan class="dls-31" x="64.42" y="0">o</tspan><tspan class="dls-22" x="73.94" y="0">r</tspan><tspan x="80.43" y="0">s</tspan></text><line class="dls-11" x1="672.79" y1="270" x2="729.21" y2="270"/><polygon class="dls-12" points="676 280.97 657 270 676 259.03 676 280.97"/><polygon class="dls-12" points="726 280.97 745 270 726 259.03 726 280.97"/><path class="dls-12" d="M695,394.35h24.11V404l14.46-14.46-14.46-14.47v9.65H695a33.81,33.81,0,0,0-33.75,33.75h9.64A24.09,24.09,0,0,1,695,394.35Z"/><path class="dls-12" d="M738.36,408.81a24.1,24.1,0,0,1-24.11,24.11H690.14v-9.64l-14.47,14.47,14.47,14.46v-9.64h24.11A33.83,33.83,0,0,0,748,408.81Z"/></svg>
