<?xml version="1.0" encoding="UTF-8"?>
<svg width="1200px" height="628px" viewBox="0 0 1200 628" version="1.1" xmlns="http://www.w3.org/2000/svg" xmlns:xlink="http://www.w3.org/1999/xlink">
    <!-- Generator: Sketch 61.2 (89653) - https://sketch.com -->
    <title>ksqldb</title>
    <desc>Created with Sketch.</desc>
    <defs>
        <rect id="path-1" x="0" y="0" width="242" height="135" rx="4"></rect>
    </defs>
    <g id="ksqldb" stroke="none" stroke-width="1" fill="none" fill-rule="evenodd">
        <g id="db" transform="translate(413.000000, 127.000000)" stroke="#22E6DD" stroke-linecap="round" stroke-linejoin="round" stroke-width="4.91">
            <path d="M354,43.4619863 C354,19.4578767 274.750068,0 177,0 C79.2499315,0 0,19.4578767 0,43.4619863 L0,310.538014 L0,310.538014 C0,334.60274 79.2499315,354 177,354 C274.750068,354 354,334.60274 354,310.538014 L354,310.538014 L354,43.4619863 Z" id="Path"></path>
            <path d="M189.850201,0 C281.610205,1.59748603 354,20.2148045 354,42.9519553 C354,66.7340782 274.761539,86 177.025619,86 C158.916049,86 141.44892,85.3393855 125,84.1142458" id="Path"></path>
            <path d="M109,85 C103.86637,84.1019108 98.8552339,83.089172 94,82" id="Path"></path>
        </g>
        <g id="left-app-2" transform="translate(570.000000, 500.000000)" fill="#D938FD">
            <polygon id="Triangle-Copy-3" points="15 0 30 30 0 30"></polygon>
        </g>
        <path d="M471.700003,337 L471.700003,321.319997 L475.220003,321.319997 L486.380005,337 L499.220007,337 L483.820005,316.479997 L499.100007,298.239994 L486.300005,298.239994 L475.380003,312.039996 L471.700003,312.039996 L471.700003,279.399991 L461.260001,279.399991 L461.260001,337 L471.700003,337 Z M519.580003,338 C530.820005,338 537.380006,332.839999 537.380006,324.839998 C537.380006,318.279997 532.700005,314.519996 524.300004,313.239993 L520.860003,312.719996 C517.34,312.199996 514.540002,311.639996 514.540002,309.399995 C514.540002,307.279995 516.540003,305.879995 520.500003,305.879995 C524.860004,305.919995 529.780005,307.519995 532.860005,309.039995 L536.380006,300.919994 C531.220005,298.399994 526.380004,297.239993 520.180003,297.239993 C509.980002,297.239993 503.820001,301.959994 503.820001,309.919996 C503.820001,316.519997 508.260001,320.439997 517.220003,321.679997 L520.380003,322.119998 C524.860004,322.759998 526.820004,323.799998 526.820004,325.679998 C526.820004,327.959999 524.500004,329.319999 519.660003,329.319999 C513.820002,329.319999 509.780002,327.719998 506.460001,325.519998 L502.34,333.439999 C507.380001,337 514.300002,338 519.580003,338 Z M583.780007,353.000003 L583.780007,298.239994 L573.580005,298.239994 L573.580005,302.519994 C571.020005,299.359994 567.300004,297.199993 561.980004,297.199993 C551.300002,297.199993 543.220001,305.959995 543.220001,317.599997 C543.220001,329.239999 551.300002,338 561.980004,338 C567.180004,338 570.860005,335.96 573.380005,332.959999 L573.380005,353.000003 L583.780007,353.000003 Z M563.900002,328.279999 C557.780003,328.279999 553.900002,323.519998 553.900002,317.599997 C553.900002,311.679996 557.780003,306.919995 563.900002,306.919995 C569.860005,306.919995 573.900002,311.479996 573.900002,317.599997 C573.900002,323.719998 569.860005,328.279999 563.900002,328.279999 Z M605.180003,337 L605.180003,279.399991 L594.740001,279.399991 L594.740001,337 L605.180003,337 Z M640.100005,336.999991 C657.620008,336.999991 669.18001,325.879998 669.18001,308.999991 C669.18001,292.119993 657.620008,280.999991 640.100005,280.999991 L617.020001,280.999991 L617.020001,336.999991 L640.100005,336.999991 Z M639.980005,326.559998 L628.180003,326.559998 L628.180003,291.439993 L639.980005,291.439993 C651.780007,291.439993 657.500008,298.719994 657.500008,308.999995 C657.500008,319.159997 651.780007,326.559998 639.980005,326.559998 Z M703.460005,336.999991 C716.900007,336.999991 724.540008,331.719999 724.540008,320.959997 C724.540008,314.919996 720.340008,310.119996 715.220001,308.399995 C719.900008,306.679995 723.340008,302.159994 723.340008,296.519993 C723.340008,285.839992 715.140007,280.999991 702.100005,280.999991 L679.220001,280.999991 L679.220001,336.999991 L703.460005,336.999991 Z M701.820005,303.919995 L690.380003,303.919995 L690.380003,290.839992 L701.780005,290.839992 C707.300006,290.839992 711.700006,292.039993 711.700006,297.319993 C711.700006,302.759994 707.380003,303.919995 701.820005,303.919995 Z M702.900005,327.199998 L690.380003,327.159998 L690.380003,313.719996 L702.900005,313.719996 C709.060006,313.719996 712.940007,315.159996 712.940007,320.399997 C712.940007,325.759998 709.060006,327.199998 702.900005,327.199998 Z" id="ksqlDB" fill="#22E6DD" fill-rule="nonzero"></path>
        <path d="M1114,208.010274 C1114,193.092466 1064.74863,181 1004,181 C943.25137,181 894,193.092466 894,208.010274 L894,373.989726 L894,373.989726 C894,388.945205 943.25137,401 1004,401 C1064.74863,401 1114,388.945205 1114,373.989726 L1114,373.989726 L1114,208.010274 Z" id="Path" stroke="#22E6DD" stroke-width="4.91" stroke-linecap="round" stroke-linejoin="round"></path>
        <path d="M1012.21279,181 C1069.11201,181.984497 1114,193.457961 1114,207.470391 C1114,222.126816 1064.86523,234 1004.26043,234 C993.030913,234 982.199767,233.592877 972,232.837849" id="Path" stroke="#22E6DD" stroke-width="4.91" stroke-linecap="round" stroke-linejoin="round"></path>
        <path d="M930.600632,311 L930.600632,301.472222 L932.826133,301.472222 L939.881981,311 L948,311 L938.263435,298.53125 L947.924131,287.447917 L939.831401,287.447917 L932.927292,295.833333 L930.600632,295.833333 L930.600632,276 L924,276 L924,311 L930.600632,311 Z M960.824201,312 C967.881279,312 972,308.835132 972,303.928361 C972,299.904809 969.061644,297.598626 963.787671,296.813543 L961.627854,296.494603 C959.417808,296.175662 957.659817,295.832188 957.659817,294.458292 C957.659817,293.157998 958.915525,292.299313 961.401826,292.299313 C964.139269,292.323847 967.228311,293.305201 969.1621,294.237488 L971.372146,289.257115 C968.13242,287.711482 965.093607,287 961.200913,287 C954.796804,287 950.929224,289.894995 950.929224,294.777233 C950.929224,298.825319 953.716895,301.229637 959.342466,301.990186 L961.326484,302.260059 C964.139269,302.652601 965.369863,303.290481 965.369863,304.443572 C965.369863,305.842002 963.913242,306.676153 960.874429,306.676153 C957.207763,306.676153 954.671233,305.694799 952.586758,304.345437 L950,309.20314 C953.164384,311.386654 957.509132,312 960.824201,312 Z M1000,321 L1000,287.633692 L993.713018,287.633692 L993.713018,290.241577 C992.135108,288.316129 989.842209,287 986.563116,287 C979.980276,287 975,292.337634 975,299.430108 C975,306.522581 979.980276,311.860215 986.563116,311.860215 C989.768245,311.860215 992.036489,310.617204 993.589744,308.789247 L993.589744,321 L1000,321 Z M988,306 C984.328,306 982,303.102996 982,299.5 C982,295.897004 984.328,293 988,293 C991.576,293 994,295.775281 994,299.5 C994,303.224719 991.576,306 988,306 Z M1014,311 L1014,276 L1007,276 L1007,311 L1014,311 Z M1035.15951,311 C1045.90798,311 1053,304.248571 1053,294 C1053,283.751429 1045.90798,277 1035.15951,277 L1021,277 L1021,311 L1035.15951,311 Z M1035.2442,305 L1028,305 L1028,284 L1035.2442,284 C1042.4884,284 1046,288.353075 1046,294.5 C1046,300.575171 1042.4884,305 1035.2442,305 Z M1074.97617,311 C1083.27979,311 1088,307.794286 1088,301.261429 C1088,297.594286 1085.40512,294.68 1082.24184,293.635714 C1085.13327,292.591429 1087.25861,289.847143 1087.25861,286.422857 C1087.25861,279.938571 1082.19241,277 1074.13592,277 L1060,277 L1060,311 L1074.97617,311 Z M1073.97561,291 L1067,291 L1067,283 L1073.95122,283 C1077.31707,283 1080,283.733945 1080,286.963303 C1080,290.29052 1077.36585,291 1073.97561,291 Z M1074.7695,305 L1067,304.976261 L1067,297 L1074.7695,297 C1078.5922,297 1081,297.854599 1081,300.964392 C1081,304.145401 1078.5922,305 1074.7695,305 Z" id="ksqlDB" fill="#22E6DD" fill-rule="nonzero"></path>
        <path d="M939,33.4339041 C939,23.805137 907.210479,16 868,16 C828.789521,16 797,23.805137 797,33.4339041 L797,140.566096 L797,140.566096 C797,150.219178 828.789521,158 868,158 C907.210479,158 939,150.219178 939,140.566096 L939,140.566096 L939,33.4339041 Z" id="Path" stroke="#22E6DD" stroke-width="4.91" stroke-linecap="round" stroke-linejoin="round"></path>
        <path d="M873.053356,16 C909.917637,16.6315642 939,23.9918994 939,32.9810056 C939,42.3832402 907.166208,50 867.901122,50 C860.625662,50 853.6083,49.7388268 847,49.2544693" id="Path" stroke="#22E6DD" stroke-width="4.91" stroke-linecap="round" stroke-linejoin="round"></path>
        <path d="M820.400421,100 L820.400421,93.7388889 L821.884089,93.7388889 L826.587987,100 L832,100 L825.508957,91.80625 L831.94942,84.5229167 L826.554268,84.5229167 L821.951528,90.0333333 L820.400421,90.0333333 L820.400421,77 L816,77 L816,100 L820.400421,100 Z M839.888128,100 C844.378995,100 847,97.9744848 847,94.8341511 C847,92.2590775 845.130137,90.7831207 841.773973,90.2806673 L840.399543,90.0765456 C838.993151,89.8724239 837.874429,89.6526006 837.874429,88.7733072 C837.874429,87.9411187 838.673516,87.3915604 840.255708,87.3915604 C841.997717,87.407262 843.96347,88.0353288 845.194064,88.6319921 L846.600457,85.4445535 C844.538813,84.4553484 842.605023,84 840.127854,84 C836.052511,84 833.591324,85.8527969 833.591324,88.9774289 C833.591324,91.5682041 835.365297,93.1069676 838.945205,93.5937193 L840.207763,93.7664377 C841.997717,94.0176644 842.780822,94.4259078 842.780822,95.1638862 C842.780822,96.0588813 841.853881,96.592738 839.920091,96.592738 C837.586758,96.592738 835.972603,95.9646712 834.646119,95.1010795 L833,98.2100098 C835.013699,99.6074583 837.778539,100 839.888128,100 Z M865,106 L865,84.4100358 L860.976331,84.4100358 L860.976331,86.097491 C859.966469,84.8516129 858.499014,84 856.400394,84 C852.187377,84 849,87.4537634 849,92.0430108 C849,96.6322581 852.187377,100.086022 856.400394,100.086022 C858.451677,100.086022 859.903353,99.2817204 860.897436,98.0989247 L860.897436,106 L865,106 Z M857,96 C854.552,96 853,94.2172285 853,92 C853,89.7827715 854.552,88 857,88 C859.384,88 861,89.7078652 861,92 C861,94.2921348 859.384,96 857,96 Z M874,100 L874,77 L869,77 L869,100 L874,100 Z M888.292178,100 C895.345859,100 900,95.6314286 900,89 C900,82.3685714 895.345859,78 888.292178,78 L879,78 L879,100 L888.292178,100 Z M887.829468,96 L883,96 L883,82 L887.829468,82 C892.658936,82 895,84.9020501 895,89 C895,93.0501139 892.658936,96 887.829468,96 Z M913.627538,100 C918.965578,100 922,97.9257143 922,93.6985714 C922,91.3257143 920.331862,89.44 918.298323,88.7642857 C920.157105,88.0885714 921.523389,86.3128571 921.523389,84.0971429 C921.523389,79.9014286 918.266549,78 913.087379,78 L904,78 L904,100 L913.627538,100 Z M913.292683,87 L909,87 L909,82 L913.277674,82 C915.348968,82 917,82.4587156 917,84.4770642 C917,86.5565749 915.378987,87 913.292683,87 Z M912.994681,96 L908,95.9851632 L908,91 L912.994681,91 C915.452128,91 917,91.5341246 917,93.4777448 C917,95.4658754 915.452128,96 912.994681,96 Z" id="ksqlDB" fill="#22E6DD" fill-rule="nonzero"></path>
        <rect id="Rectangle" stroke="#D938FD" stroke-width="5" x="61.5" y="50.5" width="273" height="241" rx="9"></rect>
        <path d="M132.886002,94.4680001 C137.494003,94.4680001 141.292004,92.4159997 143.524004,89.1399992 L139.420004,86.1879987 C137.908003,88.3839991 135.640003,89.6439993 132.850002,89.6439993 C128.404002,89.6439993 124.912001,86.4579988 124.894001,81.3999979 C124.894001,76.5039971 128.278002,73.1559966 132.850002,73.1559966 C135.658003,73.1559966 137.944003,74.4519968 139.366004,76.6299972 L143.686004,73.9839967 C141.634004,70.4559961 137.530003,68.3319958 132.886002,68.3319958 C125.128001,68.3319958 119.656,73.8219967 119.656,81.3999979 C119.656,88.9779992 125.128001,94.4680001 132.886002,94.4680001 Z M166.384003,94 L166.384003,89.3019992 L153.064001,89.3019992 L153.064001,68.7999959 L148.042,68.7999959 L148.042,94 L166.384003,94 Z M174.844001,94 L174.844001,68.7999959 L169.822,68.7999959 L169.822,94 L174.844001,94 Z M199.396004,94 L199.396004,89.3919992 L185.590001,89.3919992 L185.590001,83.5959983 L198.622003,83.5959983 L198.622003,78.9879975 L185.590001,78.9879975 L185.590001,73.4079966 L199.252004,73.4079966 L199.252004,68.7999959 L180.568,68.7999959 L180.568,94 L199.396004,94 Z M209.566001,94 L209.584001,77.1699972 L222.364003,94 L227.080004,94 L227.080004,68.7999959 L222.040003,68.7999959 L222.040003,85.6299986 L209.242001,68.7999959 L204.544,68.7999959 L204.544,94 L209.566001,94 Z M243.352002,94 L243.352002,73.4979966 L251.164003,73.4979966 L251.164003,68.7999959 L230.518,68.7999959 L230.518,73.4979966 L238.330001,73.4979966 L238.330001,94 L243.352002,94 Z M264.070002,94.4500001 C269.488003,94.4500001 274.384004,91.8039996 274.384004,86.2419987 C274.384004,81.849998 270.856003,79.9239977 266.356002,79.1859976 L264.934002,78.9519975 C261.910002,78.4479975 259.732001,77.8899974 259.732001,76.0359971 C259.732001,74.1279967 261.730002,73.0119966 264.556002,73.0119966 C267.310003,73.0119966 269.722003,73.9299967 271.702003,75.1539969 L274.078004,71.0499962 C270.910003,69.1599959 267.976003,68.3679958 264.448002,68.3679958 C259.084001,68.3679958 254.404,71.1039962 254.404,76.3599971 C254.404,80.9139979 257.644001,82.8759982 262.090002,83.5779983 L263.692002,83.8299983 C267.202003,84.3879984 269.038003,85.0359985 269.038003,86.7819988 C269.038003,88.7259991 266.878002,89.8239993 264.088002,89.8239993 C260.848001,89.8239993 257.878001,88.5639991 256.060001,87.1059989 L253.45,91.1559995 C256.150001,93.3339999 260.254001,94.4500001 264.070002,94.4500001 Z" id="CLIENTS" fill="#D839FD" fill-rule="nonzero"></path>
        <path d="M272.768751,550.189 C274.186251,550.189 275.540751,549.643 276.506752,548.6245 L275.519751,547.4905 C274.795251,548.215 273.850251,548.5825 272.842251,548.5825 C271.130751,548.5825 269.81825,547.2595 269.81825,545.390499 C269.81825,543.237999 271.466751,541.442499 273.587751,541.442499 C274.396251,541.442499 275.435751,541.641999 276.296751,542.712999 L277.640752,541.746999 C276.800752,540.497498 275.456751,539.825498 273.671751,539.825498 C270.437751,539.825498 268.05425,542.408499 268.05425,545.516499 C268.05425,548.1625 269.92325,550.189 272.768751,550.189 Z M280.15025,550 L281.336751,544.487499 C281.777751,542.450499 283.121751,541.452999 284.644251,541.452999 C285.190251,541.452999 285.767751,541.589499 286.145751,541.841499 L286.807251,540.213998 C286.313751,539.961998 285.641751,539.814998 285.032751,539.814998 C284.035251,539.814998 282.932751,540.140498 282.029751,541.095999 L282.260751,540.024998 L280.54925,540.024998 L278.42825,550 L280.15025,550 Z M291.689751,550.2205 C293.317251,550.2205 294.524751,549.8005 295.700752,548.845 L294.839751,547.6585 C293.989251,548.341 293.086251,548.719 291.878751,548.719 C289.967751,548.719 288.86525,547.5745 288.86525,545.810499 L288.86525,545.621499 L296.572252,545.621499 C296.761252,545.148999 296.897752,544.413999 296.897752,543.783999 C296.897752,541.347999 295.238751,539.814998 292.771251,539.814998 C289.01225,539.814998 287.12225,543.164499 287.12225,545.883999 C287.12225,548.3515 288.77075,550.2205 291.689751,550.2205 Z M295.175751,544.235499 L289.10675,544.235499 C289.547751,542.765499 290.660751,541.337499 292.687251,541.337499 C294.178251,541.337499 295.196751,542.261499 295.196751,543.836499 C295.196751,543.962499 295.186251,544.098999 295.175751,544.235499 Z M302.788251,550.2205 C304.216251,550.2205 305.308251,549.685 306.106251,548.887 L305.875251,550 L307.576252,550 L309.697252,540.024998 L307.985752,540.024998 L307.628752,541.662999 C307.061752,540.560498 305.885751,539.814998 304.184751,539.814998 C300.940251,539.814998 298.48325,542.597499 298.48325,545.747499 C298.48325,548.32 300.32075,550.21 302.788251,550.2205 Z M303.187251,548.593 C301.339251,548.593 300.25775,547.2805 300.25775,545.568999 C300.25775,543.311499 301.958751,541.431999 304.132251,541.431999 C306.127251,541.431999 307.303252,543.006999 307.019752,545.054499 C306.746751,547.081 305.150751,548.593 303.187251,548.593 Z M315.703251,550.21 C316.910751,550.21 317.855751,549.8215 318.653751,549.244 L317.939751,547.921 C317.278251,548.3725 316.616751,548.6035 315.902751,548.6035 C314.810751,548.6035 314.075751,547.8895 314.411751,546.282999 L315.409251,541.589499 L319.441251,541.589499 L319.777252,540.024998 L315.734751,540.024998 L316.406751,536.895998 L314.674251,536.895998 L314.002251,540.024998 L311.92325,540.024998 L311.58725,541.589499 L313.666251,541.589499 L312.67925,546.240999 C312.13325,548.8135 313.403751,550.21 315.703251,550.21 Z M325.090251,550.2205 C326.717751,550.2205 327.925251,549.8005 329.101252,548.845 L328.240251,547.6585 C327.389751,548.341 326.486751,548.719 325.279251,548.719 C323.368251,548.719 322.26575,547.5745 322.26575,545.810499 L322.26575,545.621499 L329.972752,545.621499 C330.161752,545.148999 330.298252,544.413999 330.298252,543.783999 C330.298252,541.347999 328.639251,539.814998 326.171751,539.814998 C322.41275,539.814998 320.52275,543.164499 320.52275,545.883999 C320.52275,548.3515 322.17125,550.2205 325.090251,550.2205 Z M328.576251,544.235499 L322.50725,544.235499 C322.948251,542.765499 324.061251,541.337499 326.087751,541.337499 C327.578751,541.337499 328.597251,542.261499 328.597251,543.836499 C328.597251,543.962499 328.586751,544.098999 328.576251,544.235499 Z M338.14175,554.200001 L339.38075,548.3725 C339.947751,549.475 341.113251,550.21 342.824751,550.21 C346.069252,550.21 348.526252,547.4275 348.526252,544.277499 C348.526252,541.704999 346.688752,539.814998 344.221251,539.804498 C342.772251,539.804498 341.690751,540.360998 340.882251,541.158999 L341.134251,540.024998 L339.42275,540.024998 L336.40925,554.200001 L338.14175,554.200001 Z M342.866751,548.593 C340.882251,548.593 339.706251,547.018 339.989751,544.970499 C340.262751,542.943999 341.848251,541.431999 343.822251,541.431999 C345.670251,541.431999 346.751752,542.754999 346.751752,544.455999 C346.751752,546.713499 345.050751,548.593 342.866751,548.593 Z M354.763251,550.2205 C356.390751,550.2205 357.598251,549.8005 358.774252,548.845 L357.913251,547.6585 C357.062751,548.341 356.159751,548.719 354.952251,548.719 C353.041251,548.719 351.93875,547.5745 351.93875,545.810499 L351.93875,545.621499 L359.645752,545.621499 C359.834752,545.148999 359.971252,544.413999 359.971252,543.783999 C359.971252,541.347999 358.312251,539.814998 355.844751,539.814998 C352.08575,539.814998 350.19575,543.164499 350.19575,545.883999 C350.19575,548.3515 351.84425,550.2205 354.763251,550.2205 Z M358.249251,544.235499 L352.18025,544.235499 C352.621251,542.765499 353.734251,541.337499 355.760751,541.337499 C357.251751,541.337499 358.270251,542.261499 358.270251,543.836499 C358.270251,543.962499 358.259751,544.098999 358.249251,544.235499 Z M363.07925,550 L364.265751,544.487499 C364.706751,542.450499 366.050751,541.452999 367.573251,541.452999 C368.119251,541.452999 368.696751,541.589499 369.074751,541.841499 L369.736251,540.213998 C369.242751,539.961998 368.570751,539.814998 367.961751,539.814998 C366.964251,539.814998 365.861751,540.140498 364.958751,541.095999 L365.189751,540.024998 L363.47825,540.024998 L361.35725,550 L363.07925,550 Z M373.705251,550.21 C376.172751,550.21 377.821251,548.992 378.031251,547.207 C378.199251,545.705499 377.243751,544.613499 375.007251,544.277499 L374.167251,544.151499 C373.033251,543.983499 372.382251,543.594999 372.487251,542.670999 C372.581751,541.820499 373.495251,541.316499 374.818251,541.316499 C375.962751,541.316499 377.327751,541.725999 378.073251,542.240499 L378.976252,540.927999 C378.010251,540.266498 376.540251,539.825498 374.839251,539.825498 C372.539751,539.825498 370.92275,540.875499 370.70225,542.754999 C370.52375,544.245999 371.43725,545.358999 373.663251,545.684499 L374.545251,545.820999 C375.784251,546.009999 376.340751,546.482499 376.256751,547.2385 C376.151751,548.1835 375.164751,548.7085 373.684251,548.7085 C372.319251,548.7085 371.12225,548.215 370.27175,547.564 L369.31625,548.8345 C370.47125,549.7165 372.20375,550.21 373.705251,550.21 Z M383.638251,537.714998 C384.331251,537.714998 384.866751,537.200498 384.866751,536.517998 C384.866751,535.824998 384.331251,535.289498 383.638251,535.289498 C382.955751,535.289498 382.430751,535.824998 382.430751,536.517998 C382.430751,537.200498 382.955751,537.714998 383.638251,537.714998 Z M381.64325,550 L383.764251,540.024998 L382.03175,540.024998 L379.91075,550 L381.64325,550 Z M388.888251,550.21 C391.355751,550.21 393.004251,548.992 393.214251,547.207 C393.382251,545.705499 392.426751,544.613499 390.190251,544.277499 L389.350251,544.151499 C388.216251,543.983499 387.565251,543.594999 387.670251,542.670999 C387.764751,541.820499 388.678251,541.316499 390.001251,541.316499 C391.145751,541.316499 392.510751,541.725999 393.256251,542.240499 L394.159252,540.927999 C393.193251,540.266498 391.723251,539.825498 390.022251,539.825498 C387.722751,539.825498 386.10575,540.875499 385.88525,542.754999 C385.70675,544.245999 386.62025,545.358999 388.846251,545.684499 L389.728251,545.820999 C390.967251,546.009999 391.523751,546.482499 391.439751,547.2385 C391.334751,548.1835 390.347751,548.7085 388.867251,548.7085 C387.502251,548.7085 386.30525,548.215 385.45475,547.564 L384.49925,548.8345 C385.65425,549.7165 387.38675,550.21 388.888251,550.21 Z M399.797751,550.21 C401.005251,550.21 401.950251,549.8215 402.748251,549.244 L402.034251,547.921 C401.372751,548.3725 400.711251,548.6035 399.997251,548.6035 C398.905251,548.6035 398.170251,547.8895 398.506251,546.282999 L399.503751,541.589499 L403.535751,541.589499 L403.871752,540.024998 L399.829251,540.024998 L400.501251,536.895998 L398.768751,536.895998 L398.096751,540.024998 L396.01775,540.024998 L395.68175,541.589499 L397.760751,541.589499 L396.77375,546.240999 C396.22775,548.8135 397.498251,550.21 399.797751,550.21 Z M409.184751,550.2205 C410.812251,550.2205 412.019751,549.8005 413.195752,548.845 L412.334751,547.6585 C411.484251,548.341 410.581251,548.719 409.373751,548.719 C407.462751,548.719 406.36025,547.5745 406.36025,545.810499 L406.36025,545.621499 L414.067252,545.621499 C414.256252,545.148999 414.392752,544.413999 414.392752,543.783999 C414.392752,541.347999 412.733751,539.814998 410.266251,539.814998 C406.50725,539.814998 404.61725,543.164499 404.61725,545.883999 C404.61725,548.3515 406.26575,550.2205 409.184751,550.2205 Z M412.670751,544.235499 L406.60175,544.235499 C407.042751,542.765499 408.155751,541.337499 410.182251,541.337499 C411.673251,541.337499 412.691751,542.261499 412.691751,543.836499 C412.691751,543.962499 412.681251,544.098999 412.670751,544.235499 Z M417.50075,550 L418.666251,544.476999 C419.075751,542.544999 420.472251,541.442499 422.152251,541.442499 C423.727251,541.442499 424.409752,542.324499 424.409752,543.521499 C424.409752,543.794499 424.378252,544.077999 424.304752,544.371999 L423.107751,550 L424.829752,550 L426.047752,544.350999 C426.131752,543.962499 426.173752,543.594999 426.173752,543.248499 C426.173752,541.232499 424.808752,539.814998 422.561751,539.814998 C421.501251,539.814998 420.325251,540.150998 419.369751,541.158999 L419.611251,540.024998 L417.89975,540.024998 L415.77875,550 L417.50075,550 Z M432.872751,550.21 C434.080251,550.21 435.025251,549.8215 435.823251,549.244 L435.109251,547.921 C434.447751,548.3725 433.786251,548.6035 433.072251,548.6035 C431.980251,548.6035 431.245251,547.8895 431.581251,546.282999 L432.578751,541.589499 L436.610751,541.589499 L436.946752,540.024998 L432.904251,540.024998 L433.576251,536.895998 L431.843751,536.895998 L431.171751,540.024998 L429.09275,540.024998 L428.75675,541.589499 L430.835751,541.589499 L429.84875,546.240999 C429.30275,548.8135 430.573251,550.21 432.872751,550.21 Z M451.541751,554.200001 L454.555252,540.024998 L452.843752,540.024998 L452.486752,541.662999 C451.919752,540.560498 450.743751,539.814998 449.042751,539.814998 C445.798251,539.814998 443.34125,542.597499 443.34125,545.747499 C443.34125,548.32 445.24175,550.21 447.803751,550.2205 C449.105751,550.2205 450.124251,549.7795 450.901251,549.097 L449.809251,554.200001 L451.541751,554.200001 Z M448.045251,548.593 C446.197251,548.593 445.11575,547.2805 445.11575,545.568999 C445.11575,543.311499 446.816751,541.431999 448.990251,541.431999 C450.985251,541.431999 452.161252,543.006999 451.877752,545.054499 C451.604751,547.081 450.008751,548.593 448.045251,548.593 Z M460.445751,550.21 C462.902751,550.21 465.034252,548.929 465.674752,545.894499 L466.913752,540.024998 L465.181252,540.024998 L464.005251,545.589999 C463.574751,547.648 462.209751,548.6035 460.645251,548.6035 C459.301251,548.6035 458.324751,547.963 458.324751,546.524499 C458.324751,546.261999 458.356251,545.967999 458.419251,545.652999 L459.616251,540.024998 L457.88375,540.024998 L456.69725,545.579499 C456.61325,545.978499 456.57125,546.366999 456.57125,546.713499 C456.57125,548.9815 458.24075,550.21 460.445751,550.21 Z M472.856751,550.2205 C474.484251,550.2205 475.691751,549.8005 476.867752,548.845 L476.006751,547.6585 C475.156251,548.341 474.253251,548.719 473.045751,548.719 C471.134751,548.719 470.03225,547.5745 470.03225,545.810499 L470.03225,545.621499 L477.739252,545.621499 C477.928252,545.148999 478.064752,544.413999 478.064752,543.783999 C478.064752,541.347999 476.405751,539.814998 473.938251,539.814998 C470.17925,539.814998 468.28925,543.164499 468.28925,545.883999 C468.28925,548.3515 469.93775,550.2205 472.856751,550.2205 Z M476.342751,544.235499 L470.27375,544.235499 C470.714751,542.765499 471.827751,541.337499 473.854251,541.337499 C475.345251,541.337499 476.363751,542.261499 476.363751,543.836499 C476.363751,543.962499 476.353251,544.098999 476.342751,544.235499 Z M481.17275,550 L482.359251,544.487499 C482.800251,542.450499 484.144251,541.452999 485.666751,541.452999 C486.212751,541.452999 486.790251,541.589499 487.168251,541.841499 L487.829751,540.213998 C487.336251,539.961998 486.664251,539.814998 486.055251,539.814998 C485.057751,539.814998 483.955251,540.140498 483.052251,541.095999 L483.283251,540.024998 L481.57175,540.024998 L479.45075,550 L481.17275,550 Z M491.704251,537.714998 C492.397251,537.714998 492.932751,537.200498 492.932751,536.517998 C492.932751,535.824998 492.397251,535.289498 491.704251,535.289498 C491.021751,535.289498 490.496751,535.824998 490.496751,536.517998 C490.496751,537.200498 491.021751,537.714998 491.704251,537.714998 Z M489.70925,550 L491.830251,540.024998 L490.09775,540.024998 L487.97675,550 L489.70925,550 Z M497.867751,550.2205 C499.495251,550.2205 500.702751,549.8005 501.878752,548.845 L501.017751,547.6585 C500.167251,548.341 499.264251,548.719 498.056751,548.719 C496.145751,548.719 495.04325,547.5745 495.04325,545.810499 L495.04325,545.621499 L502.750252,545.621499 C502.939252,545.148999 503.075752,544.413999 503.075752,543.783999 C503.075752,541.347999 501.416751,539.814998 498.949251,539.814998 C495.19025,539.814998 493.30025,543.164499 493.30025,545.883999 C493.30025,548.3515 494.94875,550.2205 497.867751,550.2205 Z M501.353751,544.235499 L495.28475,544.235499 C495.725751,542.765499 496.838751,541.337499 498.865251,541.337499 C500.356251,541.337499 501.374751,542.261499 501.374751,543.836499 C501.374751,543.962499 501.364251,544.098999 501.353751,544.235499 Z M508.283751,550.21 C510.751251,550.21 512.399751,548.992 512.609751,547.207 C512.777751,545.705499 511.822251,544.613499 509.585751,544.277499 L508.745751,544.151499 C507.611751,543.983499 506.960751,543.594999 507.065751,542.670999 C507.160251,541.820499 508.073751,541.316499 509.396751,541.316499 C510.541251,541.316499 511.906251,541.725999 512.651751,542.240499 L513.554752,540.927999 C512.588751,540.266498 511.118751,539.825498 509.417751,539.825498 C507.118251,539.825498 505.50125,540.875499 505.28075,542.754999 C505.10225,544.245999 506.01575,545.358999 508.241751,545.684499 L509.123751,545.820999 C510.362751,546.009999 510.919251,546.482499 510.835251,547.2385 C510.730251,548.1835 509.743251,548.7085 508.262751,548.7085 C506.897751,548.7085 505.70075,548.215 504.85025,547.564 L503.89475,548.8345 C505.04975,549.7165 506.78225,550.21 508.283751,550.21 Z M294.32,586 L295.485501,580.476999 C295.895001,578.544999 297.291501,577.442499 298.971501,577.442499 C300.956001,577.442499 301.460002,578.828499 301.124002,580.371999 L299.927001,586 L301.649002,586 L302.846002,580.476999 C303.266002,578.544999 304.620502,577.442499 306.300502,577.442499 C307.886003,577.442499 308.568503,578.324499 308.568503,579.521499 C308.568503,579.794499 308.526503,580.077999 308.463503,580.371999 L307.266503,586 L308.988503,586 L310.206503,580.350999 C310.290503,579.962499 310.332503,579.594999 310.332503,579.248499 C310.332503,577.232499 308.978003,575.814998 306.731002,575.814998 C305.334502,575.814998 303.791002,576.308498 302.709502,577.767999 C302.205502,576.591998 301.050501,575.814998 299.381001,575.814998 C298.320501,575.814998 297.144501,576.150998 296.189001,577.158999 L296.430501,576.024998 L294.719,576.024998 L292.598,586 L294.32,586 Z M316.832001,586.2205 C318.260001,586.2205 319.352001,585.685 320.150001,584.887 L319.919001,586 L321.620002,586 L323.741002,576.024998 L322.029502,576.024998 L321.672502,577.662999 C321.105502,576.560498 319.929501,575.814998 318.228501,575.814998 C314.984001,575.814998 312.527,578.597499 312.527,581.747499 C312.527,584.32 314.3645,586.21 316.832001,586.2205 Z M317.231001,584.593 C315.383001,584.593 314.3015,583.2805 314.3015,581.568999 C314.3015,579.311499 316.002501,577.431999 318.176001,577.431999 C320.171001,577.431999 321.347002,579.006999 321.063502,581.054499 C320.790501,583.081 319.194501,584.593 317.231001,584.593 Z M326.765,586 L327.930501,580.476999 C328.340001,578.544999 329.736501,577.442499 331.416501,577.442499 C332.991501,577.442499 333.674002,578.324499 333.674002,579.521499 C333.674002,579.794499 333.642502,580.077999 333.569002,580.371999 L332.372001,586 L334.094002,586 L335.312002,580.350999 C335.396002,579.962499 335.438002,579.594999 335.438002,579.248499 C335.438002,577.232499 334.073002,575.814998 331.826001,575.814998 C330.765501,575.814998 329.589501,576.150998 328.634001,577.158999 L328.875501,576.024998 L327.164,576.024998 L325.043,586 L326.765,586 Z M341.937501,586.2205 C343.365501,586.2205 344.457501,585.685 345.255501,584.887 L345.024501,586 L346.725502,586 L348.846502,576.024998 L347.135002,576.024998 L346.778002,577.662999 C346.211002,576.560498 345.035001,575.814998 343.334001,575.814998 C340.089501,575.814998 337.6325,578.597499 337.6325,581.747499 C337.6325,584.32 339.47,586.21 341.937501,586.2205 Z M342.336501,584.593 C340.488501,584.593 339.407,583.2805 339.407,581.568999 C339.407,579.311499 341.108001,577.431999 343.281501,577.431999 C345.276501,577.431999 346.452502,579.006999 346.169002,581.054499 C345.896001,583.081 344.300001,584.593 342.336501,584.593 Z M354.138501,590.294501 C356.847501,590.294501 358.884502,588.562 359.567002,585.3385 L361.551502,576.024998 L359.840002,576.024998 L359.472502,577.673499 C358.905502,576.560498 357.740001,575.814998 355.997001,575.814998 C352.826001,575.814998 350.369,578.429499 350.369,581.652999 C350.369,584.131 352.196,586.0105 354.926001,586.021 C356.154501,586.021 357.173001,585.58 357.950001,584.8765 L357.855501,585.37 C357.446001,587.407 356.028501,588.7405 354.170001,588.7405 C352.773501,588.7405 351.5555,588.2785 350.642,587.4805 L349.6655,588.793 C350.8415,589.769501 352.3325,590.294501 354.138501,590.294501 Z M355.031001,584.4145 C353.330001,584.4145 352.154,583.186 352.154,581.484999 C352.154,579.132999 353.792001,577.431999 355.986501,577.431999 C357.771501,577.431999 358.979002,578.796999 358.874002,580.623999 C358.748002,582.849999 357.162501,584.4145 355.031001,584.4145 Z M367.589001,586.2205 C369.216501,586.2205 370.424001,585.8005 371.600002,584.845 L370.739001,583.6585 C369.888501,584.341 368.985501,584.719 367.778001,584.719 C365.867001,584.719 364.7645,583.5745 364.7645,581.810499 L364.7645,581.621499 L372.471502,581.621499 C372.660502,581.148999 372.797002,580.413999 372.797002,579.783999 C372.797002,577.347999 371.138001,575.814998 368.670501,575.814998 C364.9115,575.814998 363.0215,579.164499 363.0215,581.883999 C363.0215,584.3515 364.67,586.2205 367.589001,586.2205 Z M371.075001,580.235499 L365.006,580.235499 C365.447001,578.765499 366.560001,577.337499 368.586501,577.337499 C370.077501,577.337499 371.096001,578.261499 371.096001,579.836499 C371.096001,579.962499 371.085501,580.098999 371.075001,580.235499 Z M384.756501,586.189 C386.174001,586.189 387.528501,585.643 388.494502,584.6245 L387.507501,583.4905 C386.783001,584.215 385.838001,584.5825 384.830001,584.5825 C383.118501,584.5825 381.806,583.2595 381.806,581.390499 C381.806,579.237999 383.454501,577.442499 385.575501,577.442499 C386.384001,577.442499 387.423501,577.641999 388.284501,578.712999 L389.628502,577.746999 C388.788502,576.497498 387.444501,575.825498 385.659501,575.825498 C382.425501,575.825498 380.042,578.408499 380.042,581.516499 C380.042,584.1625 381.911,586.189 384.756501,586.189 Z M395.487501,586.2205 C398.742501,586.2205 401.189002,583.627 401.189002,580.518999 C401.189002,577.809999 399.225502,575.814998 396.359001,575.814998 C393.104001,575.814998 390.6575,578.408499 390.6575,581.505999 C390.6575,584.236 392.642,586.2205 395.487501,586.2205 Z M395.603001,584.6035 C393.734001,584.6035 392.4215,583.2805 392.4215,581.411499 C392.4215,579.248499 394.049001,577.431999 396.222501,577.431999 C398.112501,577.431999 399.435502,578.754999 399.435502,580.623999 C399.435502,582.786999 397.787001,584.6035 395.603001,584.6035 Z M404.465,586 L405.630501,580.476999 C406.040001,578.544999 407.436501,577.442499 409.116501,577.442499 C410.691501,577.442499 411.374002,578.324499 411.374002,579.521499 C411.374002,579.794499 411.342502,580.077999 411.269002,580.371999 L410.072001,586 L411.794002,586 L413.012002,580.350999 C413.096002,579.962499 413.138002,579.594999 413.138002,579.248499 C413.138002,577.232499 411.773002,575.814998 409.526001,575.814998 C408.465501,575.814998 407.289501,576.150998 406.334001,577.158999 L406.575501,576.024998 L404.864,576.024998 L402.743,586 L404.465,586 Z M416.855,586 L418.020501,580.476999 C418.430001,578.544999 419.826501,577.442499 421.506501,577.442499 C423.081501,577.442499 423.764002,578.324499 423.764002,579.521499 C423.764002,579.794499 423.732502,580.077999 423.659002,580.371999 L422.462001,586 L424.184002,586 L425.402002,580.350999 C425.486002,579.962499 425.528002,579.594999 425.528002,579.248499 C425.528002,577.232499 424.163002,575.814998 421.916001,575.814998 C420.855501,575.814998 419.679501,576.150998 418.724001,577.158999 L418.965501,576.024998 L417.254,576.024998 L415.133,586 L416.855,586 Z M432.258501,586.2205 C433.886001,586.2205 435.093501,585.8005 436.269502,584.845 L435.408501,583.6585 C434.558001,584.341 433.655001,584.719 432.447501,584.719 C430.536501,584.719 429.434,583.5745 429.434,581.810499 L429.434,581.621499 L437.141002,581.621499 C437.330002,581.148999 437.466502,580.413999 437.466502,579.783999 C437.466502,577.347999 435.807501,575.814998 433.340001,575.814998 C429.581,575.814998 427.691,579.164499 427.691,581.883999 C427.691,584.3515 429.3395,586.2205 432.258501,586.2205 Z M435.744501,580.235499 L429.6755,580.235499 C430.116501,578.765499 431.229501,577.337499 433.256001,577.337499 C434.747001,577.337499 435.765501,578.261499 435.765501,579.836499 C435.765501,579.962499 435.755001,580.098999 435.744501,580.235499 Z M443.808501,586.189 C445.226001,586.189 446.580501,585.643 447.546502,584.6245 L446.559501,583.4905 C445.835001,584.215 444.890001,584.5825 443.882001,584.5825 C442.170501,584.5825 440.858,583.2595 440.858,581.390499 C440.858,579.237999 442.506501,577.442499 444.627501,577.442499 C445.436001,577.442499 446.475501,577.641999 447.336501,578.712999 L448.680502,577.746999 C447.840502,576.497498 446.496501,575.825498 444.711501,575.825498 C441.477501,575.825498 439.094,578.408499 439.094,581.516499 C439.094,584.1625 440.963,586.189 443.808501,586.189 Z M454.172001,586.21 C455.379501,586.21 456.324501,585.8215 457.122501,585.244 L456.408501,583.921 C455.747001,584.3725 455.085501,584.6035 454.371501,584.6035 C453.279501,584.6035 452.544501,583.8895 452.880501,582.282999 L453.878001,577.589499 L457.910001,577.589499 L458.246002,576.024998 L454.203501,576.024998 L454.875501,572.895998 L453.143001,572.895998 L452.471001,576.024998 L450.392,576.024998 L450.056,577.589499 L452.135001,577.589499 L451.148,582.240999 C450.602,584.8135 451.872501,586.21 454.172001,586.21 Z M463.895001,586.2205 C467.150001,586.2205 469.596502,583.627 469.596502,580.518999 C469.596502,577.809999 467.633002,575.814998 464.766501,575.814998 C461.511501,575.814998 459.065,578.408499 459.065,581.505999 C459.065,584.236 461.0495,586.2205 463.895001,586.2205 Z M464.010501,584.6035 C462.141501,584.6035 460.829,583.2805 460.829,581.411499 C460.829,579.248499 462.456501,577.431999 464.630001,577.431999 C466.520001,577.431999 467.843002,578.754999 467.843002,580.623999 C467.843002,582.786999 466.194501,584.6035 464.010501,584.6035 Z M472.8725,586 L474.059001,580.487499 C474.500001,578.450499 475.844001,577.452999 477.366501,577.452999 C477.912501,577.452999 478.490001,577.589499 478.868001,577.841499 L479.529501,576.213998 C479.036001,575.961998 478.364001,575.814998 477.755001,575.814998 C476.757501,575.814998 475.655001,576.140498 474.752001,577.095999 L474.983001,576.024998 L473.2715,576.024998 L471.1505,586 L472.8725,586 Z M483.498501,586.21 C485.966001,586.21 487.614501,584.992 487.824501,583.207 C487.992501,581.705499 487.037001,580.613499 484.800501,580.277499 L483.960501,580.151499 C482.826501,579.983499 482.175501,579.594999 482.280501,578.670999 C482.375001,577.820499 483.288501,577.316499 484.611501,577.316499 C485.756001,577.316499 487.121001,577.725999 487.866501,578.240499 L488.769502,576.927999 C487.803501,576.266498 486.333501,575.825498 484.632501,575.825498 C482.333001,575.825498 480.716,576.875499 480.4955,578.754999 C480.317,580.245999 481.2305,581.358999 483.456501,581.684499 L484.338501,581.820999 C485.577501,582.009999 486.134001,582.482499 486.050001,583.2385 C485.945001,584.1835 484.958001,584.7085 483.477501,584.7085 C482.112501,584.7085 480.9155,584.215 480.065,583.564 L479.1095,584.8345 C480.2645,585.7165 481.997,586.21 483.498501,586.21 Z" id="createpersistentqueriesmanageconnectors" fill="#D839FD" fill-rule="nonzero"></path>
        <path d="M145.408251,150 L145.408251,145.883999 L146.332251,145.883999 L149.261751,150 L152.632252,150 L148.589751,144.613499 L152.600752,139.825498 L149.240751,139.825498 L146.374251,143.447999 L145.408251,143.447999 L145.408251,134.879998 L142.66775,134.879998 L142.66775,150 L145.408251,150 Z M157.976751,150.2625 C160.927251,150.2625 162.649252,148.908 162.649252,146.807999 C162.649252,145.085999 161.420751,144.098999 159.215751,143.762999 L158.312751,143.626499 C157.388751,143.489999 156.653751,143.342999 156.653751,142.754999 C156.653751,142.198499 157.178751,141.830999 158.218251,141.830999 C159.362751,141.841499 160.654251,142.261499 161.462751,142.660499 L162.386752,140.528998 C161.032251,139.867498 159.761751,139.562998 158.134251,139.562998 C155.45675,139.562998 153.83975,140.801998 153.83975,142.891499 C153.83975,144.623999 155.00525,145.652999 157.357251,145.978499 L158.186751,146.093999 C159.362751,146.261999 159.877251,146.534999 159.877251,147.0285 C159.877251,147.627 159.268251,147.984 157.997751,147.984 C156.464751,147.984 155.40425,147.564 154.53275,146.9865 L153.45125,149.0655 C154.77425,150 156.590751,150.2625 157.976751,150.2625 Z M174.829252,154.200001 L174.829252,139.825498 L172.151751,139.825498 L172.151751,140.948999 C171.479751,140.119498 170.503251,139.552498 169.106751,139.552498 C166.30325,139.552498 164.18225,141.851999 164.18225,144.907499 C164.18225,147.963 166.30325,150.2625 169.106751,150.2625 C170.471751,150.2625 171.437751,149.727 172.099251,148.9395 L172.099251,154.200001 L174.829252,154.200001 Z M169.610751,147.711 C168.004251,147.711 166.985751,146.461499 166.985751,144.907499 C166.985751,143.353499 168.004251,142.103999 169.610751,142.103999 C171.175251,142.103999 172.235751,143.300999 172.235751,144.907499 C172.235751,146.513999 171.175251,147.711 169.610751,147.711 Z M180.446751,150 L180.446751,134.879998 L177.70625,134.879998 L177.70625,150 L180.446751,150 Z M189.613251,150 C194.212252,150 197.246753,147.081 197.246753,142.649999 C197.246753,138.218998 194.212252,135.299998 189.613251,135.299998 L183.55475,135.299998 L183.55475,150 L189.613251,150 Z M189.581751,147.2595 L186.484251,147.2595 L186.484251,138.040498 L189.581751,138.040498 C192.679252,138.040498 194.180752,139.951498 194.180752,142.649999 C194.180752,145.316999 192.679252,147.2595 189.581751,147.2595 Z M206.245251,150 C209.773252,150 211.778752,148.614 211.778752,145.789499 C211.778752,144.203999 210.676252,142.943999 209.332252,142.492499 C210.560752,142.040999 211.463752,140.854499 211.463752,139.373998 C211.463752,136.570498 209.311252,135.299998 205.888251,135.299998 L199.88225,135.299998 L199.88225,150 L206.245251,150 Z M205.814751,141.316499 L202.811751,141.316499 L202.811751,137.882998 L205.804251,137.882998 C207.253251,137.882998 208.408252,138.197998 208.408252,139.583998 C208.408252,141.011999 207.274251,141.316499 205.814751,141.316499 Z M206.098251,147.4275 L202.811751,147.417 L202.811751,143.888999 L206.098251,143.888999 C207.715252,143.888999 208.733752,144.266999 208.733752,145.642499 C208.733752,147.0495 207.715252,147.4275 206.098251,147.4275 Z M226.625751,150.273 C229.313752,150.273 231.529252,149.076 232.831252,147.165 L230.437252,145.442999 C229.555252,146.723999 228.232252,147.459 226.604751,147.459 C224.011251,147.459 221.974251,145.600499 221.963751,142.649999 C221.963751,139.793998 223.937751,137.840998 226.604751,137.840998 C228.242752,137.840998 229.576252,138.596998 230.405752,139.867498 L232.925752,138.323998 C231.728752,136.265998 229.334752,135.026998 226.625751,135.026998 C222.100251,135.026998 218.90825,138.229498 218.90825,142.649999 C218.90825,147.0705 222.100251,150.273 226.625751,150.273 Z M246.166252,150 L246.166252,147.2595 L238.396251,147.2595 L238.396251,135.299998 L235.46675,135.299998 L235.46675,150 L246.166252,150 Z M251.101251,150 L251.101251,135.299998 L248.17175,135.299998 L248.17175,150 L251.101251,150 Z" id="ksqlDBCLI" fill="#D839FD" fill-rule="nonzero"></path>
        <rect id="Rectangle" stroke="#D938FD" stroke-width="2" x="80" y="176" width="235" height="41" rx="9"></rect>
        <path d="M154.608751,203 L154.608751,197.151499 L155.469751,197.151499 L159.753752,203 L163.302752,203 L158.777251,197.109499 C161.601752,196.836499 163.281752,195.187999 163.281752,192.772998 C163.281752,189.958998 161.402252,188.299998 157.895251,188.299998 L151.67925,188.299998 L151.67925,203 L154.608751,203 Z M157.842751,194.599999 L154.608751,194.599999 L154.608751,190.998498 L157.842751,190.998498 C159.396752,190.998498 160.268252,191.554998 160.268252,192.772998 C160.268252,194.011999 159.438752,194.599999 157.842751,194.599999 Z M176.942252,203 L176.942252,200.312 L168.888751,200.312 L168.888751,196.930999 L176.490752,196.930999 L176.490752,194.242999 L168.888751,194.242999 L168.888751,190.987998 L176.858252,190.987998 L176.858252,188.299998 L165.95925,188.299998 L165.95925,203 L176.942252,203 Z M185.468251,203.2625 C188.628752,203.2625 191.484752,201.719 191.484752,198.474499 C191.484752,195.912499 189.426752,194.788999 186.801751,194.358499 L185.972251,194.221999 C184.208251,193.927999 182.937751,193.602498 182.937751,192.520998 C182.937751,191.407998 184.103251,190.756998 185.751751,190.756998 C187.358251,190.756998 188.765252,191.292498 189.920252,192.006498 L191.306252,189.612498 C189.458252,188.509998 187.746752,188.047998 185.688751,188.047998 C182.559751,188.047998 179.82975,189.643998 179.82975,192.709998 C179.82975,195.366499 181.719751,196.510999 184.313251,196.920499 L185.247751,197.067499 C187.295251,197.392999 188.366252,197.770999 188.366252,198.789499 C188.366252,199.923499 187.106251,200.564 185.478751,200.564 C183.588751,200.564 181.856251,199.828999 180.79575,198.978499 L179.27325,201.341 C180.84825,202.6115 183.242251,203.2625 185.468251,203.2625 Z M200.304751,203 L200.304751,191.040498 L204.861752,191.040498 L204.861752,188.299998 L192.81825,188.299998 L192.81825,191.040498 L197.375251,191.040498 L197.375251,203 L200.304751,203 Z M213.671251,203 L214.952251,199.576999 L221.220752,199.576999 L222.501752,203 L225.630752,203 L219.908252,188.299998 L216.338251,188.299998 L210.61575,203 L213.671251,203 Z M220.212752,196.878499 L215.960251,196.878499 L218.091751,191.197998 L220.212752,196.878499 Z M230.450251,203 L230.450251,197.623999 L233.537251,197.623999 C237.023252,197.623999 238.892252,195.796999 238.892252,192.972498 C238.892252,190.126998 237.023252,188.299998 233.516251,188.299998 L227.52075,188.299998 L227.52075,203 L230.450251,203 Z M233.463751,194.946499 L230.450251,194.946499 L230.450251,190.998498 L233.463751,190.998498 C235.059752,190.998498 235.889252,191.659998 235.889252,192.972498 C235.889252,194.295499 235.059752,194.946499 233.463751,194.946499 Z M244.320751,203 L244.320751,188.299998 L241.39125,188.299998 L241.39125,203 L244.320751,203 Z" id="RESTAPI" fill="#D839FD" fill-rule="nonzero"></path>
        <rect id="Rectangle" stroke="#D938FD" stroke-width="2" x="80" y="229" width="235" height="41" rx="9"></rect>
        <path d="M158.010751,256.2625 C161.076751,256.2625 163.281752,254.3305 163.281752,250.644999 L163.281752,241.299998 L160.352251,241.299998 L160.352251,250.371999 C160.352251,252.492999 159.428251,253.459 157.874251,253.459 C156.519751,253.459 155.61675,252.828999 155.01825,252.093999 L153.31725,254.2255 C154.11525,255.202 155.57475,256.2625 158.010751,256.2625 Z M170.600251,256.2625 C171.996751,256.2625 172.983751,255.6955 173.645251,254.8765 L173.645251,256 L176.322752,256 L176.322752,245.825498 L173.645251,245.825498 L173.645251,246.948999 C172.973251,246.119498 171.996751,245.552498 170.600251,245.552498 C167.79675,245.552498 165.67575,247.851999 165.67575,250.907499 C165.67575,253.963 167.79675,256.2625 170.600251,256.2625 Z M171.104251,253.711 C169.497751,253.711 168.479251,252.461499 168.479251,250.907499 C168.479251,249.353499 169.497751,248.103999 171.104251,248.103999 C172.668751,248.103999 173.729251,249.300999 173.729251,250.907499 C173.729251,252.513999 172.668751,253.711 171.104251,253.711 Z M185.132251,256 L189.111752,245.825498 L186.224251,245.825498 L183.567751,253.1125 L180.932251,245.825498 L177.95025,245.825498 L181.971751,256 L185.132251,256 Z M195.033751,256.2625 C196.430251,256.2625 197.417251,255.6955 198.078751,254.8765 L198.078751,256 L200.756252,256 L200.756252,245.825498 L198.078751,245.825498 L198.078751,246.948999 C197.406751,246.119498 196.430251,245.552498 195.033751,245.552498 C192.23025,245.552498 190.10925,247.851999 190.10925,250.907499 C190.10925,253.963 192.23025,256.2625 195.033751,256.2625 Z M195.537751,253.711 C193.931251,253.711 192.912751,252.461499 192.912751,250.907499 C192.912751,249.353499 193.931251,248.103999 195.537751,248.103999 C197.102251,248.103999 198.162751,249.300999 198.162751,250.907499 C198.162751,252.513999 197.102251,253.711 195.537751,253.711 Z M210.668251,256 L211.949251,252.576999 L218.217752,252.576999 L219.498752,256 L222.627752,256 L216.905252,241.299998 L213.335251,241.299998 L207.61275,256 L210.668251,256 Z M217.209752,249.878499 L212.957251,249.878499 L215.088751,244.197998 L217.209752,249.878499 Z M227.447251,256 L227.447251,250.623999 L230.534251,250.623999 C234.020252,250.623999 235.889252,248.796999 235.889252,245.972498 C235.889252,243.126998 234.020252,241.299998 230.513251,241.299998 L224.51775,241.299998 L224.51775,256 L227.447251,256 Z M230.460751,247.946499 L227.447251,247.946499 L227.447251,243.998498 L230.460751,243.998498 C232.056752,243.998498 232.886252,244.659998 232.886252,245.972498 C232.886252,247.295499 232.056752,247.946499 230.460751,247.946499 Z M241.317751,256 L241.317751,241.299998 L238.38825,241.299998 L238.38825,256 L241.317751,256 Z" id="JavaAPI" fill="#D839FD" fill-rule="nonzero"></path>
        <path d="M198,294 C198,460.52381 198,543.785714 198,543.785714 C197,563 198,563 217,563 C237.752026,563 555.632813,563 568.816406,563 C582,563 585,563 585,550.864662 C585,542.774436 585,532.998747 585,521.537594" id="Path-3" stroke="#D938FD" stroke-width="5"></path>
        <rect id="Rectangle" stroke="#D938FD" stroke-width="2" x="80" y="123" width="235" height="41" rx="9"></rect>
        <g id="CLI-group" transform="translate(77.000000, 357.000000)">
            <g id="CLI">
                <mask id="mask-2" fill="white">
                    <use xlink:href="#path-1"></use>
                </mask>
                <rect stroke="#838383" x="0.5" y="0.5" width="241" height="134" rx="4"></rect>
                <rect id="Rectangle" fill="#000000" mask="url(#mask-2)" x="0" y="16" width="242" height="119"></rect>
                <rect id="Rectangle" fill="#333333" mask="url(#mask-2)" transform="translate(121.000000, 8.000000) scale(1, -1) translate(-121.000000, -8.000000) " x="0" y="0" width="242" height="16"></rect>
                <g id="KSQL&gt;-CREATE-TABLE-…" mask="url(#mask-2)" fill-rule="nonzero">
                    <g transform="translate(13.204102, 31.640625)">
                        <path d="M1.78417969,13.359375 L1.78417969,8.2265625 L3.13769531,6.78515625 L7.41796875,13.359375 L9.5625,13.359375 L4.30664062,5.59863281 L9.41308594,0.237304688 L7.33007813,0.237304688 L1.78417969,6.07324219 L1.78417969,0.237304688 L0,0.237304688 L0,13.359375 L1.78417969,13.359375 Z M14.7480469,13.6142578 C16.2246094,13.6142578 17.3496094,13.2861328 18.1230469,12.6298828 C18.8964844,11.9736328 19.2832031,11.0214844 19.2832031,9.7734375 C19.2832031,8.71289062 19.0019531,7.875 18.4394531,7.25976563 C17.8769531,6.64453125 16.9804688,6.19335938 15.75,5.90625 L15.75,5.90625 L14.8183594,5.6953125 C13.9453125,5.49023438 13.3491211,5.23535156 13.0297852,4.93066406 C12.7104492,4.62597656 12.5507812,4.18359375 12.5507812,3.60351562 C12.5507812,2.94140625 12.7939453,2.41552734 13.2802734,2.02587891 C13.7666016,1.63623047 14.4287109,1.44140625 15.2666016,1.44140625 C15.8173828,1.44140625 16.3637695,1.52929688 16.9057617,1.70507812 C17.4477539,1.88085938 17.9882812,2.14160156 18.5273438,2.48730469 L18.5273438,2.48730469 L18.5273438,0.685546875 C17.9121094,0.45703125 17.3261719,0.285644531 16.7695312,0.171386719 C16.2128906,0.0571289063 15.6826172,0 15.1787109,0 C13.8720703,0 12.824707,0.353027344 12.0366211,1.05908203 C11.2485352,1.76513672 10.8544922,2.70410156 10.8544922,3.87597656 C10.8544922,4.81347656 11.1298828,5.56054688 11.6806641,6.1171875 C12.2314453,6.67382812 13.1162109,7.08984375 14.3349609,7.36523438 L14.3349609,7.36523438 L15.2841797,7.58496094 C16.1337891,7.77246094 16.7299805,8.0390625 17.0727539,8.38476562 C17.4155273,8.73046875 17.5869141,9.23144531 17.5869141,9.88769531 C17.5869141,10.6083984 17.3378906,11.1694336 16.8398438,11.5708008 C16.3417969,11.972168 15.6445312,12.1728516 14.7480469,12.1728516 C14.1386719,12.1728516 13.5336914,12.0732422 12.9331055,11.8740234 C12.3325195,11.6748047 11.6953125,11.3613281 11.0214844,10.9335938 L11.0214844,10.9335938 L11.0214844,12.8232422 C11.6484375,13.0869141 12.2724609,13.284668 12.8935547,13.4165039 C13.5146484,13.5483398 14.1328125,13.6142578 14.7480469,13.6142578 Z M28.2832031,15.7324219 L29.6103516,14.8535156 L27.8525391,13.1835938 C28.6669922,12.7617188 29.2749023,12.0249023 29.6762695,10.9731445 C30.0776367,9.92138672 30.2783203,8.53417969 30.2783203,6.81152344 C30.2783203,4.52050781 29.9165039,2.8125 29.1928711,1.6875 C28.4692383,0.5625 27.3662109,0 25.8837891,0 C24.4072266,0 23.3071289,0.5625 22.5834961,1.6875 C21.8598633,2.8125 21.4980469,4.52050781 21.4980469,6.81152344 C21.4980469,9.09667969 21.8598633,10.8017578 22.5834961,11.9267578 C23.3071289,13.0517578 24.4013672,13.6142578 25.8662109,13.6142578 C25.9130859,13.6142578 25.9746094,13.6113281 26.0507812,13.6054688 C26.1269531,13.5996094 26.1855469,13.5966797 26.2265625,13.5966797 L26.2265625,13.5966797 L28.2832031,15.7324219 Z M25.8837891,12.1728516 C24.9873047,12.1728516 24.3413086,11.7597656 23.9458008,10.9335938 C23.550293,10.1074219 23.3525391,8.73339844 23.3525391,6.81152344 C23.3525391,4.88378906 23.550293,3.50683594 23.9458008,2.68066406 C24.3413086,1.85449219 24.9873047,1.44140625 25.8837891,1.44140625 C26.7861328,1.44140625 27.4350586,1.85449219 27.8305664,2.68066406 C28.2260742,3.50683594 28.4238281,4.88378906 28.4238281,6.81152344 C28.4238281,8.73925781 28.2260742,10.1147461 27.8305664,10.9379883 C27.4350586,11.7612305 26.7861328,12.1728516 25.8837891,12.1728516 Z M41.3173828,13.359375 L41.3173828,11.8652344 L34.9804688,11.8652344 L34.9804688,0.237304688 L33.1962891,0.237304688 L33.1962891,13.359375 L41.3173828,13.359375 Z M42.9169922,12.1201172 L52.2070312,8.44628906 L52.2070312,6.98730469 L42.9169922,3.31347656 L42.9169922,4.91308594 L50.3876953,7.72558594 L42.9169922,10.5117188 L42.9169922,12.1201172 Z" id="KSQL&gt;" fill="#AAAAAA"></path>
                        <path d="M70.3476562,13.6142578 C70.8808594,13.6142578 71.3847656,13.5541992 71.859375,13.434082 C72.3339844,13.3139648 72.796875,13.1337891 73.2480469,12.8935547 L73.2480469,12.8935547 L73.2480469,11.0742188 C72.8203125,11.4316406 72.3588867,11.7041016 71.8637695,11.8916016 C71.3686523,12.0791016 70.8632812,12.1728516 70.3476562,12.1728516 C69.1933594,12.1728516 68.3291016,11.7275391 67.7548828,10.8369141 C67.1806641,9.94628906 66.8935547,8.60449219 66.8935547,6.81152344 C66.8935547,5.01269531 67.1806641,3.66796875 67.7548828,2.77734375 C68.3291016,1.88671875 69.1933594,1.44140625 70.3476562,1.44140625 C70.8515625,1.44140625 71.3525391,1.53515625 71.8505859,1.72265625 C72.3486328,1.91015625 72.8144531,2.18261719 73.2480469,2.54003906 L73.2480469,2.54003906 L73.2480469,0.720703125 C72.796875,0.48046875 72.3339844,0.300292969 71.859375,0.180175781 C71.3847656,0.0600585938 70.8808594,0 70.3476562,0 C68.6777344,0 67.3754883,0.599121094 66.440918,1.79736328 C65.5063477,2.99560547 65.0390625,4.66699219 65.0390625,6.81152344 C65.0390625,8.96777344 65.503418,10.640625 66.4321289,11.8300781 C67.3608398,13.0195312 68.6660156,13.6142578 70.3476562,13.6142578 Z M77.6953125,13.359375 L77.6953125,7.81347656 L79.3916016,7.81347656 C79.9716797,7.81347656 80.4418945,7.94970703 80.8022461,8.22216797 C81.1625977,8.49462891 81.5683594,9.10253906 82.0195312,10.0458984 L82.0195312,10.0458984 L83.5839844,13.359375 L85.4912109,13.359375 L83.7070312,9.7734375 C83.2265625,8.80078125 82.8251953,8.15185547 82.5029297,7.82666016 C82.1806641,7.50146484 81.7910156,7.28027344 81.3339844,7.16308594 C82.1894531,7.04003906 82.8530273,6.70458984 83.324707,6.15673828 C83.7963867,5.60888672 84.0322266,4.90136719 84.0322266,4.03417969 C84.0322266,2.80371094 83.6484375,1.86328125 82.8808594,1.21289062 C82.1132812,0.5625 81.0087891,0.237304688 79.5673828,0.237304688 L79.5673828,0.237304688 L75.9111328,0.237304688 L75.9111328,13.359375 L77.6953125,13.359375 Z M79.6376953,6.35449219 L77.6953125,6.35449219 L77.6953125,1.69628906 L79.5673828,1.69628906 C80.4111328,1.69628906 81.0541992,1.89697266 81.496582,2.29833984 C81.9389648,2.69970703 82.1601562,3.27832031 82.1601562,4.03417969 C82.1601562,4.81933594 81.9521484,5.40234375 81.5361328,5.78320312 C81.1201172,6.1640625 80.4873047,6.35449219 79.6376953,6.35449219 L79.6376953,6.35449219 Z M95.1767578,13.359375 L95.1767578,11.8652344 L88.9980469,11.8652344 L88.9980469,6.75878906 L94.7460938,6.75878906 L94.7460938,5.26464844 L88.9980469,5.26464844 L88.9980469,1.73144531 L95.0097656,1.73144531 L95.0097656,0.237304688 L87.2226562,0.237304688 L87.2226562,13.359375 L95.1767578,13.359375 Z M98.4902344,13.359375 L99.4394531,9.94042969 L104.036133,9.94042969 L105.00293,13.359375 L106.839844,13.359375 L102.823242,0.237304688 L100.669922,0.237304688 L96.6533203,13.359375 L98.4902344,13.359375 Z M103.614258,8.51660156 L99.8701172,8.51660156 L101.742188,1.80175781 L103.614258,8.51660156 Z M113.484375,13.359375 L113.484375,1.73144531 L117.588867,1.73144531 L117.588867,0.237304688 L107.578125,0.237304688 L107.578125,1.73144531 L111.700195,1.73144531 L111.700195,13.359375 L113.484375,13.359375 Z M127.6875,13.359375 L127.6875,11.8652344 L121.508789,11.8652344 L121.508789,6.75878906 L127.256836,6.75878906 L127.256836,5.26464844 L121.508789,5.26464844 L121.508789,1.73144531 L127.520508,1.73144531 L127.520508,0.237304688 L119.733398,0.237304688 L119.733398,13.359375 L127.6875,13.359375 Z M145.995117,13.359375 L145.995117,1.73144531 L150.099609,1.73144531 L150.099609,0.237304688 L140.088867,0.237304688 L140.088867,1.73144531 L144.210938,1.73144531 L144.210938,13.359375 L145.995117,13.359375 Z M152.674805,13.359375 L153.624023,9.94042969 L158.220703,9.94042969 L159.1875,13.359375 L161.024414,13.359375 L157.007812,0.237304688 L154.854492,0.237304688 L150.837891,13.359375 L152.674805,13.359375 Z M157.798828,8.51660156 L154.054688,8.51660156 L155.926758,1.80175781 L157.798828,8.51660156 Z M166.693359,13.359375 C168.234375,13.359375 169.394531,13.0561523 170.173828,12.449707 C170.953125,11.8432617 171.342773,10.9453125 171.342773,9.75585938 C171.342773,8.58398438 171.098145,7.69482422 170.608887,7.08837891 C170.119629,6.48193359 169.444336,6.11425781 168.583008,5.98535156 C169.350586,5.86816406 169.92627,5.578125 170.310059,5.11523438 C170.693848,4.65234375 170.885742,4.13671875 170.885742,3.56835938 C170.885742,2.5078125 170.522461,1.6875 169.795898,1.10742188 C169.069336,0.52734375 168.035156,0.237304688 166.693359,0.237304688 L166.693359,0.237304688 L162.808594,0.237304688 L162.808594,13.359375 L166.693359,13.359375 Z M166.658203,5.29980469 L164.592773,5.29980469 L164.592773,1.69628906 L166.658203,1.69628906 C167.525391,1.69628906 168.147949,1.84277344 168.525879,2.13574219 C168.903809,2.42871094 169.092773,2.90625 169.092773,3.56835938 C169.092773,4.06640625 168.900879,4.47949219 168.51709,4.80761719 C168.133301,5.13574219 167.513672,5.29980469 166.658203,5.29980469 L166.658203,5.29980469 Z M166.693359,11.9003906 L164.592773,11.9003906 L164.592773,6.74121094 L166.693359,6.74121094 C167.677734,6.74121094 168.401367,6.94189453 168.864258,7.34326172 C169.327148,7.74462891 169.558594,8.49023438 169.558594,9.58007812 C169.558594,10.40625 169.338867,10.9995117 168.899414,11.3598633 C168.459961,11.7202148 167.724609,11.9003906 166.693359,11.9003906 L166.693359,11.9003906 Z M182.197266,13.359375 L182.197266,11.8652344 L175.860352,11.8652344 L175.860352,0.237304688 L174.076172,0.237304688 L174.076172,13.359375 L182.197266,13.359375 Z M192.708984,13.359375 L192.708984,11.8652344 L186.530273,11.8652344 L186.530273,6.75878906 L192.27832,6.75878906 L192.27832,5.26464844 L186.530273,5.26464844 L186.530273,1.73144531 L192.541992,1.73144531 L192.541992,0.237304688 L184.754883,0.237304688 L184.754883,13.359375 L192.708984,13.359375 Z M207.615234,13.359375 L207.615234,10.6787109 L205.400391,10.6787109 L205.400391,13.359375 L207.615234,13.359375 Z M214.813477,13.359375 L214.813477,10.6787109 L212.598633,10.6787109 L212.598633,13.359375 L214.813477,13.359375 Z M211.209961,13.359375 L211.209961,10.6787109 L208.995117,10.6787109 L208.995117,13.359375 L211.209961,13.359375 Z" id="CREATETABLE…" fill="#FFFFFF"></path>
                    </g>
                </g>
                <circle id="Oval" fill="#4B4B4B" mask="url(#mask-2)" cx="10.5" cy="9.5" r="4.5"></circle>
                <circle id="Oval" fill="#4B4B4B" mask="url(#mask-2)" cx="23.5" cy="9.5" r="4.5"></circle>
                <circle id="Oval" fill="#4B4B4B" mask="url(#mask-2)" cx="36.5" cy="9.5" r="4.5"></circle>
            </g>
            <rect id="Rectangle" stroke="#D938FD" stroke-width="2" x="1" y="1" width="240" height="133" rx="4"></rect>
        </g>
        <line x1="776.5" y1="349.5" x2="885" y2="349" id="Line" stroke="#22E6DD" stroke-width="5" stroke-linecap="square" stroke-dasharray="10,10"></line>
        <line x1="774.5" y1="241.5" x2="859.25" y2="165.25" id="Line" stroke="#22E6DD" stroke-width="5" stroke-linecap="square" stroke-dasharray="10,10"></line>
        <line x1="901.5" y1="188.5" x2="879.5" y2="165.5" id="Line" stroke="#22E6DD" stroke-width="5" stroke-linecap="square" stroke-dasharray="10,10"></line>
        <path d="M804.61575,446 L805.781251,440.476999 C806.190751,438.544999 807.587251,437.442499 809.267251,437.442499 C811.251751,437.442499 811.755752,438.828499 811.419752,440.371999 L810.222751,446 L811.944752,446 L813.141752,440.476999 C813.561752,438.544999 814.916252,437.442499 816.596252,437.442499 C818.181753,437.442499 818.864253,438.324499 818.864253,439.521499 C818.864253,439.794499 818.822253,440.077999 818.759253,440.371999 L817.562253,446 L819.284253,446 L820.502253,440.350999 C820.586253,439.962499 820.628253,439.594999 820.628253,439.248499 C820.628253,437.232499 819.273753,435.814998 817.026752,435.814998 C815.630252,435.814998 814.086752,436.308498 813.005252,437.767999 C812.501252,436.591998 811.346251,435.814998 809.676751,435.814998 C808.616251,435.814998 807.440251,436.150998 806.484751,437.158999 L806.726251,436.024998 L805.01475,436.024998 L802.89375,446 L804.61575,446 Z M827.211751,446.21 C829.668751,446.21 831.800252,444.929 832.440752,441.894499 L833.679752,436.024998 L831.947252,436.024998 L830.771251,441.589999 C830.340751,443.648 828.975751,444.6035 827.411251,444.6035 C826.067251,444.6035 825.090751,443.963 825.090751,442.524499 C825.090751,442.261999 825.122251,441.967999 825.185251,441.652999 L826.382251,436.024998 L824.64975,436.024998 L823.46325,441.579499 C823.37925,441.978499 823.33725,442.366999 823.33725,442.713499 C823.33725,444.9815 825.00675,446.21 827.211751,446.21 Z M836.61975,446 L839.832751,430.879998 L838.100251,430.879998 L834.88725,446 L836.61975,446 Z M844.746751,446.21 C845.954251,446.21 846.899251,445.8215 847.697251,445.244 L846.983251,443.921 C846.321751,444.3725 845.660251,444.6035 844.946251,444.6035 C843.854251,444.6035 843.119251,443.8895 843.455251,442.282999 L844.452751,437.589499 L848.484751,437.589499 L848.820752,436.024998 L844.778251,436.024998 L845.450251,432.895998 L843.717751,432.895998 L843.045751,436.024998 L840.96675,436.024998 L840.63075,437.589499 L842.709751,437.589499 L841.72275,442.240999 C841.17675,444.8135 842.447251,446.21 844.746751,446.21 Z M853.125751,433.714998 C853.818751,433.714998 854.354251,433.200498 854.354251,432.517998 C854.354251,431.824998 853.818751,431.289498 853.125751,431.289498 C852.443251,431.289498 851.918251,431.824998 851.918251,432.517998 C851.918251,433.200498 852.443251,433.714998 853.125751,433.714998 Z M851.13075,446 L853.251751,436.024998 L851.51925,436.024998 L849.39825,446 L851.13075,446 Z M855.39375,450.200001 L856.63275,444.3725 C857.199751,445.475 858.365251,446.21 860.076751,446.21 C863.321252,446.21 865.778252,443.4275 865.778252,440.277499 C865.778252,437.704999 863.940752,435.814998 861.473251,435.804498 C860.024251,435.804498 858.942751,436.360998 858.134251,437.158999 L858.386251,436.024998 L856.67475,436.024998 L853.66125,450.200001 L855.39375,450.200001 Z M860.118751,444.593 C858.134251,444.593 856.958251,443.018 857.241751,440.970499 C857.514751,438.943999 859.100251,437.431999 861.074251,437.431999 C862.922251,437.431999 864.003752,438.754999 864.003752,440.455999 C864.003752,442.713499 862.302751,444.593 860.118751,444.593 Z M869.01225,446 L872.225251,430.879998 L870.492751,430.879998 L867.27975,446 L869.01225,446 Z M877.170751,446.2205 C878.798251,446.2205 880.005751,445.8005 881.181752,444.845 L880.320751,443.6585 C879.470251,444.341 878.567251,444.719 877.359751,444.719 C875.448751,444.719 874.34625,443.5745 874.34625,441.810499 L874.34625,441.621499 L882.053252,441.621499 C882.242252,441.148999 882.378752,440.413999 882.378752,439.783999 C882.378752,437.347999 880.719751,435.814998 878.252251,435.814998 C874.49325,435.814998 872.60325,439.164499 872.60325,441.883999 C872.60325,444.3515 874.25175,446.2205 877.170751,446.2205 Z M880.656751,440.235499 L874.58775,440.235499 C875.028751,438.765499 876.141751,437.337499 878.168251,437.337499 C879.659251,437.337499 880.677751,438.261499 880.677751,439.836499 C880.677751,439.962499 880.667251,440.098999 880.656751,440.235499 Z M891.11475,446 L892.049251,441.568999 L893.445751,441.568999 L896.364751,446 L898.296752,446 L894.873751,440.886499 L900.102752,436.024998 L897.855751,436.024998 L893.655751,440.014999 L892.385251,440.014999 L894.327751,430.879998 L892.595251,430.879998 L889.38225,446 L891.11475,446 Z M904.061251,446.21 C906.528751,446.21 908.177251,444.992 908.387251,443.207 C908.555251,441.705499 907.599751,440.613499 905.363251,440.277499 L904.523251,440.151499 C903.389251,439.983499 902.738251,439.594999 902.843251,438.670999 C902.937751,437.820499 903.851251,437.316499 905.174251,437.316499 C906.318751,437.316499 907.683751,437.725999 908.429251,438.240499 L909.332252,436.927999 C908.366251,436.266498 906.896251,435.825498 905.195251,435.825498 C902.895751,435.825498 901.27875,436.875499 901.05825,438.754999 C900.87975,440.245999 901.79325,441.358999 904.019251,441.684499 L904.901251,441.820999 C906.140251,442.009999 906.696751,442.482499 906.612751,443.2385 C906.507751,444.1835 905.520751,444.7085 904.040251,444.7085 C902.675251,444.7085 901.47825,444.215 900.62775,443.564 L899.67225,444.8345 C900.82725,445.7165 902.55975,446.21 904.061251,446.21 Z M918.666751,450.200001 L921.680252,436.024998 L919.968752,436.024998 L919.611752,437.662999 C919.044752,436.560498 917.868751,435.814998 916.167751,435.814998 C912.923251,435.814998 910.46625,438.597499 910.46625,441.747499 C910.46625,444.32 912.36675,446.21 914.928751,446.2205 C916.230751,446.2205 917.249251,445.7795 918.026251,445.097 L916.934251,450.200001 L918.666751,450.200001 Z M915.170251,444.593 C913.322251,444.593 912.24075,443.2805 912.24075,441.568999 C912.24075,439.311499 913.941751,437.431999 916.115251,437.431999 C918.110251,437.431999 919.286252,439.006999 919.002752,441.054499 C918.729751,443.081 917.133751,444.593 915.170251,444.593 Z M924.71475,446 L927.927751,430.879998 L926.195251,430.879998 L922.98225,446 L924.71475,446 Z M933.975751,446 C939.876752,446 943.205253,442.167499 943.205253,437.473999 C943.205253,433.725498 940.653752,431.299998 936.411751,431.299998 L931.550251,431.299998 L928.42125,446 L933.975751,446 Z M934.185751,444.2465 L930.678751,444.2465 L933.062251,433.053498 L936.201751,433.053498 C939.582752,433.053498 941.241752,434.901498 941.241752,437.641999 C941.241752,441.348499 938.721752,444.2465 934.185751,444.2465 Z M950.544751,446 C953.936252,446 956.151752,445.3175 956.844752,442.230499 C957.212252,440.571499 956.424752,439.185499 955.101752,438.618499 C956.876252,438.030499 957.884252,436.497498 957.884252,434.785998 C957.884252,432.475998 955.941752,431.299998 953.243252,431.299998 L947.835751,431.299998 L944.70675,446 L950.544751,446 Z M951.972751,437.694499 L948.360751,437.694499 L949.358251,433.032498 L952.896751,433.032498 C954.576752,433.032498 955.994252,433.515498 955.994252,434.964498 C955.994252,436.518498 954.902252,437.694499 951.972751,437.694499 Z M950.828251,444.2675 L946.964251,444.2675 L947.993251,439.416499 L951.867751,439.416499 C954.020252,439.416499 955.343252,440.161999 954.923252,442.104499 C954.545252,443.816 953.064752,444.2675 950.828251,444.2675 Z M968.300251,446.21 C970.767751,446.21 972.416251,444.992 972.626251,443.207 C972.794251,441.705499 971.838751,440.613499 969.602251,440.277499 L968.762251,440.151499 C967.628251,439.983499 966.977251,439.594999 967.082251,438.670999 C967.176751,437.820499 968.090251,437.316499 969.413251,437.316499 C970.557751,437.316499 971.922751,437.725999 972.668251,438.240499 L973.571252,436.927999 C972.605251,436.266498 971.135251,435.825498 969.434251,435.825498 C967.134751,435.825498 965.51775,436.875499 965.29725,438.754999 C965.11875,440.245999 966.03225,441.358999 968.258251,441.684499 L969.140251,441.820999 C970.379251,442.009999 970.935751,442.482499 970.851751,443.2385 C970.746751,444.1835 969.759751,444.7085 968.279251,444.7085 C966.914251,444.7085 965.71725,444.215 964.86675,443.564 L963.91125,444.8345 C965.06625,445.7165 966.79875,446.21 968.300251,446.21 Z M979.241251,446.2205 C980.868751,446.2205 982.076251,445.8005 983.252252,444.845 L982.391251,443.6585 C981.540751,444.341 980.637751,444.719 979.430251,444.719 C977.519251,444.719 976.41675,443.5745 976.41675,441.810499 L976.41675,441.621499 L984.123752,441.621499 C984.312752,441.148999 984.449252,440.413999 984.449252,439.783999 C984.449252,437.347999 982.790251,435.814998 980.322751,435.814998 C976.56375,435.814998 974.67375,439.164499 974.67375,441.883999 C974.67375,444.3515 976.32225,446.2205 979.241251,446.2205 Z M982.727251,440.235499 L976.65825,440.235499 C977.099251,438.765499 978.212251,437.337499 980.238751,437.337499 C981.729751,437.337499 982.748251,438.261499 982.748251,439.836499 C982.748251,439.962499 982.737751,440.098999 982.727251,440.235499 Z M987.55725,446 L988.743751,440.487499 C989.184751,438.450499 990.528751,437.452999 992.051251,437.452999 C992.597251,437.452999 993.174751,437.589499 993.552751,437.841499 L994.214251,436.213998 C993.720751,435.961998 993.048751,435.814998 992.439751,435.814998 C991.442251,435.814998 990.339751,436.140498 989.436751,437.095999 L989.667751,436.024998 L987.95625,436.024998 L985.83525,446 L987.55725,446 Z M999.159751,446.0105 L1005.33375,436.024998 L1003.46475,436.024998 L998.435251,444.3305 L996.786751,436.024998 L995.03325,436.024998 L997.143751,446.0105 L999.159751,446.0105 Z M1009.92225,446.2205 C1011.54975,446.2205 1012.75725,445.8005 1013.93325,444.845 L1013.07225,443.6585 C1012.22175,444.341 1011.31875,444.719 1010.11125,444.719 C1008.20025,444.719 1007.09775,443.5745 1007.09775,441.810499 L1007.09775,441.621499 L1014.80475,441.621499 C1014.99375,441.148999 1015.13025,440.413999 1015.13025,439.783999 C1015.13025,437.347999 1013.47125,435.814998 1011.00375,435.814998 C1007.24475,435.814998 1005.35475,439.164499 1005.35475,441.883999 C1005.35475,444.3515 1007.00325,446.2205 1009.92225,446.2205 Z M1013.40825,440.235499 L1007.33925,440.235499 C1007.78025,438.765499 1008.89325,437.337499 1010.91975,437.337499 C1012.41075,437.337499 1013.42925,438.261499 1013.42925,439.836499 C1013.42925,439.962499 1013.41875,440.098999 1013.40825,440.235499 Z M1018.23825,446 L1019.42475,440.487499 C1019.86575,438.450499 1021.20975,437.452999 1022.73225,437.452999 C1023.27825,437.452999 1023.85575,437.589499 1024.23375,437.841499 L1024.89525,436.213998 C1024.40175,435.961998 1023.72975,435.814998 1023.12075,435.814998 C1022.12325,435.814998 1021.02075,436.140498 1020.11775,437.095999 L1020.34875,436.024998 L1018.63725,436.024998 L1016.51625,446 L1018.23825,446 Z M1028.86425,446.21 C1031.33175,446.21 1032.98025,444.992 1033.19025,443.207 C1033.35825,441.705499 1032.40275,440.613499 1030.16625,440.277499 L1029.32625,440.151499 C1028.19225,439.983499 1027.54125,439.594999 1027.64625,438.670999 C1027.74075,437.820499 1028.65425,437.316499 1029.97725,437.316499 C1031.12175,437.316499 1032.48675,437.725999 1033.23225,438.240499 L1034.13525,436.927999 C1033.16925,436.266498 1031.69925,435.825498 1029.99825,435.825498 C1027.69875,435.825498 1026.08175,436.875499 1025.86125,438.754999 C1025.68275,440.245999 1026.59625,441.358999 1028.82225,441.684499 L1029.70425,441.820999 C1030.94325,442.009999 1031.49975,442.482499 1031.41575,443.2385 C1031.31075,444.1835 1030.32375,444.7085 1028.84325,444.7085 C1027.47825,444.7085 1026.28125,444.215 1025.43075,443.564 L1024.47525,444.8345 C1025.63025,445.7165 1027.36275,446.21 1028.86425,446.21 Z M1045.64325,446.189 C1047.06075,446.189 1048.41525,445.643 1049.38125,444.6245 L1048.39425,443.4905 C1047.66975,444.215 1046.72475,444.5825 1045.71675,444.5825 C1044.00525,444.5825 1042.69275,443.2595 1042.69275,441.390499 C1042.69275,439.237999 1044.34125,437.442499 1046.46225,437.442499 C1047.27075,437.442499 1048.31025,437.641999 1049.17125,438.712999 L1050.51525,437.746999 C1049.67525,436.497498 1048.33125,435.825498 1046.54625,435.825498 C1043.31225,435.825498 1040.92875,438.408499 1040.92875,441.516499 C1040.92875,444.1625 1042.79775,446.189 1045.64325,446.189 Z M1055.80725,446.2205 C1057.23525,446.2205 1058.32725,445.685 1059.12525,444.887 L1058.89425,446 L1060.59525,446 L1062.71625,436.024998 L1061.00475,436.024998 L1060.64775,437.662999 C1060.08075,436.560498 1058.90475,435.814998 1057.20375,435.814998 C1053.95925,435.814998 1051.50225,438.597499 1051.50225,441.747499 C1051.50225,444.32 1053.33975,446.21 1055.80725,446.2205 Z M1056.20625,444.593 C1054.35825,444.593 1053.27675,443.2805 1053.27675,441.568999 C1053.27675,439.311499 1054.97775,437.431999 1057.15125,437.431999 C1059.14625,437.431999 1060.32225,439.006999 1060.03875,441.054499 C1059.76575,443.081 1058.16975,444.593 1056.20625,444.593 Z M1065.74025,446 L1066.90575,440.476999 C1067.31525,438.544999 1068.71175,437.442499 1070.39175,437.442499 C1071.96675,437.442499 1072.64925,438.324499 1072.64925,439.521499 C1072.64925,439.794499 1072.61775,440.077999 1072.54425,440.371999 L1071.34725,446 L1073.06925,446 L1074.28725,440.350999 C1074.37125,439.962499 1074.41325,439.594999 1074.41325,439.248499 C1074.41325,437.232499 1073.04825,435.814998 1070.80125,435.814998 C1069.74075,435.814998 1068.56475,436.150998 1067.60925,437.158999 L1067.85075,436.024998 L1066.13925,436.024998 L1064.01825,446 L1065.74025,446 Z M836.829751,467.2205 C838.257751,467.2205 839.349751,466.685 840.147751,465.887 L839.916751,467 L841.617752,467 L843.738752,457.024998 L842.027252,457.024998 L841.670252,458.662999 C841.103252,457.560498 839.927251,456.814998 838.226251,456.814998 C834.981751,456.814998 832.52475,459.597499 832.52475,462.747499 C832.52475,465.32 834.36225,467.21 836.829751,467.2205 Z M837.228751,465.593 C835.380751,465.593 834.29925,464.2805 834.29925,462.568999 C834.29925,460.311499 836.000251,458.431999 838.173751,458.431999 C840.168751,458.431999 841.344752,460.006999 841.061252,462.054499 C840.788251,464.081 839.192251,465.593 837.228751,465.593 Z M849.996751,467.189 C851.414251,467.189 852.768751,466.643 853.734752,465.6245 L852.747751,464.4905 C852.023251,465.215 851.078251,465.5825 850.070251,465.5825 C848.358751,465.5825 847.04625,464.2595 847.04625,462.390499 C847.04625,460.237999 848.694751,458.442499 850.815751,458.442499 C851.624251,458.442499 852.663751,458.641999 853.524751,459.712999 L854.868752,458.746999 C854.028752,457.497498 852.684751,456.825498 850.899751,456.825498 C847.665751,456.825498 845.28225,459.408499 845.28225,462.516499 C845.28225,465.1625 847.15125,467.189 849.996751,467.189 Z M860.360251,467.21 C861.567751,467.21 862.512751,466.8215 863.310751,466.244 L862.596751,464.921 C861.935251,465.3725 861.273751,465.6035 860.559751,465.6035 C859.467751,465.6035 858.732751,464.8895 859.068751,463.282999 L860.066251,458.589499 L864.098251,458.589499 L864.434252,457.024998 L860.391751,457.024998 L861.063751,453.895998 L859.331251,453.895998 L858.659251,457.024998 L856.58025,457.024998 L856.24425,458.589499 L858.323251,458.589499 L857.33625,463.240999 C856.79025,465.8135 858.060751,467.21 860.360251,467.21 Z M875.133751,467.2205 C876.561751,467.2205 877.653751,466.685 878.451751,465.887 L878.220751,467 L879.921752,467 L882.042752,457.024998 L880.331252,457.024998 L879.974252,458.662999 C879.407252,457.560498 878.231251,456.814998 876.530251,456.814998 C873.285751,456.814998 870.82875,459.597499 870.82875,462.747499 C870.82875,465.32 872.66625,467.21 875.133751,467.2205 Z M875.532751,465.593 C873.684751,465.593 872.60325,464.2805 872.60325,462.568999 C872.60325,460.311499 874.304251,458.431999 876.477751,458.431999 C878.472751,458.431999 879.648752,460.006999 879.365252,462.054499 C879.092251,464.081 877.496251,465.593 875.532751,465.593 Z M887.166751,467.21 C889.634251,467.21 891.282751,465.992 891.492751,464.207 C891.660751,462.705499 890.705251,461.613499 888.468751,461.277499 L887.628751,461.151499 C886.494751,460.983499 885.843751,460.594999 885.948751,459.670999 C886.043251,458.820499 886.956751,458.316499 888.279751,458.316499 C889.424251,458.316499 890.789251,458.725999 891.534751,459.240499 L892.437752,457.927999 C891.471751,457.266498 890.001751,456.825498 888.300751,456.825498 C886.001251,456.825498 884.38425,457.875499 884.16375,459.754999 C883.98525,461.245999 884.89875,462.358999 887.124751,462.684499 L888.006751,462.820999 C889.245751,463.009999 889.802251,463.482499 889.718251,464.2385 C889.613251,465.1835 888.626251,465.7085 887.145751,465.7085 C885.780751,465.7085 884.58375,465.215 883.73325,464.564 L882.77775,465.8345 C883.93275,466.7165 885.66525,467.21 887.166751,467.21 Z M903.494251,467.2205 C904.922251,467.2205 906.014251,466.685 906.812251,465.887 L906.581251,467 L908.282252,467 L910.403252,457.024998 L908.691752,457.024998 L908.334752,458.662999 C907.767752,457.560498 906.591751,456.814998 904.890751,456.814998 C901.646251,456.814998 899.18925,459.597499 899.18925,462.747499 C899.18925,465.32 901.02675,467.21 903.494251,467.2205 Z M903.893251,465.593 C902.045251,465.593 900.96375,464.2805 900.96375,462.568999 C900.96375,460.311499 902.664751,458.431999 904.838251,458.431999 C906.833251,458.431999 908.009252,460.006999 907.725752,462.054499 C907.452751,464.081 905.856751,465.593 903.893251,465.593 Z M921.144751,467.21 C923.612251,467.21 925.260751,465.992 925.470751,464.207 C925.638751,462.705499 924.683251,461.613499 922.446751,461.277499 L921.606751,461.151499 C920.472751,460.983499 919.821751,460.594999 919.926751,459.670999 C920.021251,458.820499 920.934751,458.316499 922.257751,458.316499 C923.402251,458.316499 924.767251,458.725999 925.512751,459.240499 L926.415752,457.927999 C925.449751,457.266498 923.979751,456.825498 922.278751,456.825498 C919.979251,456.825498 918.36225,457.875499 918.14175,459.754999 C917.96325,461.245999 918.87675,462.358999 921.102751,462.684499 L921.984751,462.820999 C923.223751,463.009999 923.780251,463.482499 923.696251,464.2385 C923.591251,465.1835 922.604251,465.7085 921.123751,465.7085 C919.758751,465.7085 918.56175,465.215 917.71125,464.564 L916.75575,465.8345 C917.91075,466.7165 919.64325,467.21 921.144751,467.21 Z M931.077751,454.714998 C931.770751,454.714998 932.306251,454.200498 932.306251,453.517998 C932.306251,452.824998 931.770751,452.289498 931.077751,452.289498 C930.395251,452.289498 929.870251,452.824998 929.870251,453.517998 C929.870251,454.200498 930.395251,454.714998 931.077751,454.714998 Z M929.08275,467 L931.203751,457.024998 L929.47125,457.024998 L927.35025,467 L929.08275,467 Z M934.22775,467 L935.393251,461.476999 C935.802751,459.544999 937.199251,458.442499 938.879251,458.442499 C940.454251,458.442499 941.136752,459.324499 941.136752,460.521499 C941.136752,460.794499 941.105252,461.077999 941.031752,461.371999 L939.834751,467 L941.556752,467 L942.774752,461.350999 C942.858752,460.962499 942.900752,460.594999 942.900752,460.248499 C942.900752,458.232499 941.535752,456.814998 939.288751,456.814998 C938.228251,456.814998 937.052251,457.150998 936.096751,458.158999 L936.338251,457.024998 L934.62675,457.024998 L932.50575,467 L934.22775,467 Z M948.885751,471.294501 C951.594751,471.294501 953.631752,469.562 954.314252,466.3385 L956.298752,457.024998 L954.587252,457.024998 L954.219752,458.673499 C953.652752,457.560498 952.487251,456.814998 950.744251,456.814998 C947.573251,456.814998 945.11625,459.429499 945.11625,462.652999 C945.11625,465.131 946.94325,467.0105 949.673251,467.021 C950.901751,467.021 951.920251,466.58 952.697251,465.8765 L952.602751,466.37 C952.193251,468.407 950.775751,469.7405 948.917251,469.7405 C947.520751,469.7405 946.30275,469.2785 945.38925,468.4805 L944.41275,469.793 C945.58875,470.769501 947.07975,471.294501 948.885751,471.294501 Z M949.778251,465.4145 C948.077251,465.4145 946.90125,464.186 946.90125,462.484999 C946.90125,460.132999 948.539251,458.431999 950.733751,458.431999 C952.518751,458.431999 953.726252,459.796999 953.621252,461.623999 C953.495252,463.849999 951.909751,465.4145 949.778251,465.4145 Z M959.33325,467 L962.546251,451.879998 L960.813751,451.879998 L957.60075,467 L959.33325,467 Z M967.491751,467.2205 C969.119251,467.2205 970.326751,466.8005 971.502752,465.845 L970.641751,464.6585 C969.791251,465.341 968.888251,465.719 967.680751,465.719 C965.769751,465.719 964.66725,464.5745 964.66725,462.810499 L964.66725,462.621499 L972.374252,462.621499 C972.563252,462.148999 972.699752,461.413999 972.699752,460.783999 C972.699752,458.347999 971.040751,456.814998 968.573251,456.814998 C964.81425,456.814998 962.92425,460.164499 962.92425,462.883999 C962.92425,465.3515 964.57275,467.2205 967.491751,467.2205 Z M970.977751,461.235499 L964.90875,461.235499 C965.349751,459.765499 966.462751,458.337499 968.489251,458.337499 C969.980251,458.337499 970.998751,459.261499 970.998751,460.836499 C970.998751,460.962499 970.988251,461.098999 970.977751,461.235499 Z M984.659251,467.189 C986.076751,467.189 987.431251,466.643 988.397252,465.6245 L987.410251,464.4905 C986.685751,465.215 985.740751,465.5825 984.732751,465.5825 C983.021251,465.5825 981.70875,464.2595 981.70875,462.390499 C981.70875,460.237999 983.357251,458.442499 985.478251,458.442499 C986.286751,458.442499 987.326251,458.641999 988.187251,459.712999 L989.531252,458.746999 C988.691252,457.497498 987.347251,456.825498 985.562251,456.825498 C982.328251,456.825498 979.94475,459.408499 979.94475,462.516499 C979.94475,465.1625 981.81375,467.189 984.659251,467.189 Z M992.05125,467 L995.264251,451.879998 L993.531751,451.879998 L990.31875,467 L992.05125,467 Z M1000.06275,467.21 C1002.51975,467.21 1004.65125,465.929 1005.29175,462.894499 L1006.53075,457.024998 L1004.79825,457.024998 L1003.62225,462.589999 C1003.19175,464.648 1001.82675,465.6035 1000.26225,465.6035 C998.918251,465.6035 997.941751,464.963 997.941751,463.524499 C997.941751,463.261999 997.973251,462.967999 998.036251,462.652999 L999.233251,457.024998 L997.50075,457.024998 L996.31425,462.579499 C996.23025,462.978499 996.18825,463.366999 996.18825,463.713499 C996.18825,465.9815 997.85775,467.21 1000.06275,467.21 Z M1011.56025,467.21 C1014.02775,467.21 1015.67625,465.992 1015.88625,464.207 C1016.05425,462.705499 1015.09875,461.613499 1012.86225,461.277499 L1012.02225,461.151499 C1010.88825,460.983499 1010.23725,460.594999 1010.34225,459.670999 C1010.43675,458.820499 1011.35025,458.316499 1012.67325,458.316499 C1013.81775,458.316499 1015.18275,458.725999 1015.92825,459.240499 L1016.83125,457.927999 C1015.86525,457.266498 1014.39525,456.825498 1012.69425,456.825498 C1010.39475,456.825498 1008.77775,457.875499 1008.55725,459.754999 C1008.37875,461.245999 1009.29225,462.358999 1011.51825,462.684499 L1012.40025,462.820999 C1013.63925,463.009999 1014.19575,463.482499 1014.11175,464.2385 C1014.00675,465.1835 1013.01975,465.7085 1011.53925,465.7085 C1010.17425,465.7085 1008.97725,465.215 1008.12675,464.564 L1007.17125,465.8345 C1008.32625,466.7165 1010.05875,467.21 1011.56025,467.21 Z M1022.46975,467.21 C1023.67725,467.21 1024.62225,466.8215 1025.42025,466.244 L1024.70625,464.921 C1024.04475,465.3725 1023.38325,465.6035 1022.66925,465.6035 C1021.57725,465.6035 1020.84225,464.8895 1021.17825,463.282999 L1022.17575,458.589499 L1026.20775,458.589499 L1026.54375,457.024998 L1022.50125,457.024998 L1023.17325,453.895998 L1021.44075,453.895998 L1020.76875,457.024998 L1018.68975,457.024998 L1018.35375,458.589499 L1020.43275,458.589499 L1019.44575,463.240999 C1018.89975,465.8135 1020.17025,467.21 1022.46975,467.21 Z M1031.85675,467.2205 C1033.48425,467.2205 1034.69175,466.8005 1035.86775,465.845 L1035.00675,464.6585 C1034.15625,465.341 1033.25325,465.719 1032.04575,465.719 C1030.13475,465.719 1029.03225,464.5745 1029.03225,462.810499 L1029.03225,462.621499 L1036.73925,462.621499 C1036.92825,462.148999 1037.06475,461.413999 1037.06475,460.783999 C1037.06475,458.347999 1035.40575,456.814998 1032.93825,456.814998 C1029.17925,456.814998 1027.28925,460.164499 1027.28925,462.883999 C1027.28925,465.3515 1028.93775,467.2205 1031.85675,467.2205 Z M1035.34275,461.235499 L1029.27375,461.235499 C1029.71475,459.765499 1030.82775,458.337499 1032.85425,458.337499 C1034.34525,458.337499 1035.36375,459.261499 1035.36375,460.836499 C1035.36375,460.962499 1035.35325,461.098999 1035.34275,461.235499 Z M1040.17275,467 L1041.35925,461.487499 C1041.80025,459.450499 1043.14425,458.452999 1044.66675,458.452999 C1045.21275,458.452999 1045.79025,458.589499 1046.16825,458.841499 L1046.82975,457.213998 C1046.33625,456.961998 1045.66425,456.814998 1045.05525,456.814998 C1044.05775,456.814998 1042.95525,457.140498 1042.05225,458.095999 L1042.28325,457.024998 L1040.57175,457.024998 L1038.45075,467 L1040.17275,467 Z" id="multipleksqlDBserverscanactasasinglecluster" fill="#22E6DD" fill-rule="nonzero"></path>
    </g>
</svg>