<svg xmlns="http://www.w3.org/2000/svg" viewBox="75 0 860 253"><defs><style>.cls-1,.cls-10,.cls-11,.cls-12,.cls-19,.cls-2,.cls-20,.cls-25,.cls-28,.cls-4,.cls-7,.cls-8,.cls-9{fill:none;}
.cls-1,.cls-19,.cls-2,.cls-25,.cls-3{stroke:#6a6a6e;}
.cls-1,.cls-10,.cls-11,.cls-12,.cls-2,.cls-3,.cls-7,.cls-8,.cls-9{stroke-linecap:round;stroke-linejoin:round;}
.cls-1,.cls-19,.cls-20,.cls-28,.cls-7,.cls-8,.cls-9{stroke-width:2px;}
.cls-13,.cls-18,.cls-3{fill:none;}
.cls-3{stroke-width:0.77px;}
.cls-4{stroke:#6a6a6e;stroke-width:4px;}
.cls-13,.cls-19,.cls-20,.cls-25,.cls-28,.cls-4{stroke-miterlimit:10;}
.cls-5{fill:#6a6a6e;}
.cls-6{font-size:9.04px;font-family:MarkOT-Medium, Mark OT;font-weight:500;}
.cls-10,.cls-11,.cls-12,.cls-28,.cls-7,.cls-8,.cls-9{stroke:#6a6a6e;}
.cls-11,.cls-8{stroke-dasharray:25.64 5.13;}
.cls-12,.cls-9{stroke-dasharray:5.13 0 25.64 5.13;}
.cls-10,.cls-11,.cls-12{stroke-width:2.06px;}
.cls-13{stroke:#6a6a6e;stroke-width:1.29px;}
.cls-14{letter-spacing:-0.01em;}
.cls-15{letter-spacing:-0.01em;}
.cls-16{letter-spacing:0em;}
.cls-17{fill:#6a6a6e;}
.cls-18{opacity:0.9;}
.cls-20{stroke:#6a6a6e;}
.cls-21,.cls-26,.cls-29,.cls-30{font-size:20.45px;font-family:MarkOT-Medium, Mark OT;font-weight:500;}
.cls-21,.cls-26{fill:#6a6a6e;}
.cls-22{letter-spacing:-0.01em;}
.cls-23{letter-spacing:-0.01em;}
.cls-24{letter-spacing:-0.03em;}
.cls-25{stroke-width:1.88px;}
.cls-26{letter-spacing:-0.03em;}
.cls-27{letter-spacing:0em;}
.cls-29{fill:#6a6a6e;}
.cls-31{letter-spacing:-0.01em;}
</style></defs><title>streaming DB</title><g id="_1" data-name="1"><rect class="cls-1" x="84" y="139.48" width="40.66" height="40.66" rx="6.63"/><rect class="cls-2" x="88.66" y="144.14" width="31.34" height="31.34" rx="5.11"/><rect class="cls-3" x="88.66" y="199.14" width="31.34" height="31.34" rx="5.11"/><text class="cls-6" transform="translate(97.96 47.43)">DB</text><text class="cls-6" transform="translate(95.4 163.43)">APP</text><text class="cls-6" transform="translate(95.4 218.29)">APP</text><rect class="cls-1" x="84" y="194.34" width="40.66" height="40.66" rx="6.63"/><rect class="cls-3" x="881.66" y="107.14" width="31.34" height="31.34" rx="5.11"/><text class="cls-6" transform="translate(888.4 126.29)">APP</text><rect class="cls-1" x="877" y="102.34" width="40.66" height="40.66" rx="6.63"/><path class="cls-7" d="M123.48,25.94c0-2.66-8.77-4.81-19.59-4.81s-19.58,2.15-19.58,4.81V55.49h0c0,2.66,8.77,4.81,19.58,4.81s19.59-2.15,19.59-4.81h0Z"/>
<path class="cls-7" d="M84.31,25.94c0-.71.62-1.38,1.73-2"/>
<path class="cls-8" d="M86,24c3.07-1.67,9.91-2.83,17.85-2.83a70.65,70.65,0,0,1,9,.54"/>
<path class="cls-9" d="M116.39,22.24c4.33.88,7.09,2.21,7.09,3.7,0,2.65-8.77,4.81-19.59,4.81-1.36,0-2.7,0-4-.1"/>
<path class="cls-7" d="M97.35,30.47c-.94-.08-1.85-.18-2.73-.29"/>
<text class="cls-6" transform="translate(97.96 102.41)">DB</text>
<path class="cls-7" d="M123.48,80.92c0-2.66-8.77-4.81-19.59-4.81s-19.58,2.15-19.58,4.81v29.55h0c0,2.65,8.77,4.81,19.58,4.81s19.59-2.16,19.59-4.81h0Z"/>
<path class="cls-7" d="M84.31,80.92c0-.71.62-1.38,1.73-2"/>
<path class="cls-8" d="M86,78.94c3.07-1.67,9.91-2.83,17.85-2.83a72.64,72.64,0,0,1,9,.53"/>
<path class="cls-9" d="M116.39,77.22c4.33.88,7.09,2.21,7.09,3.7,0,2.65-8.77,4.81-19.59,4.81-1.36,0-2.7,0-4-.1"/>
<path class="cls-7" d="M97.35,85.45q-1.41-.12-2.73-.3"/>
</g><g id="_2" data-name="2"><rect class="cls-19" x="133.5" y="21" width="158" height="214"/>
<rect class="cls-20" x="297" y="21.5" width="92" height="214"/>
<text class="cls-21" transform="translate(170.56 128.53)">EXTR<tspan class="cls-22" x="50.2" y="0">A</tspan><tspan class="cls-23" x="63.75" y="0">C</tspan><tspan class="cls-24" x="76.84" y="0">T</tspan></text><rect class="cls-25" x="619.5" y="21" width="140" height="214"/>
<text class="cls-26" transform="translate(660.31 128.53)">L<tspan class="cls-22" x="10.44" y="0">O</tspan><tspan class="cls-27" x="24.35" y="0">AD</tspan></text><rect class="cls-28" x="395" y="21.5" width="219" height="214"/>
<text class="cls-29" transform="translate(437.13 129.03)">TRANSFORM</text><text class="cls-30" transform="translate(311.2 128.53)">S<tspan class="cls-31" x="12.57" y="0">T</tspan><tspan x="24.94" y="0">ORE</tspan></text><rect class="cls-20" x="764.5" y="22" width="92" height="214"/>
<text class="cls-30" transform="translate(778.7 129.03)">S<tspan class="cls-31" x="12.57" y="0">T</tspan><tspan x="24.94" y="0">ORE</tspan></text></g></svg>
